<mxfile host="app.diagrams.net" agent="Mozilla/5.0 (Windows NT 10.0; Win64; x64) AppleWebKit/537.36 (KHTML, like Gecko) Chrome/134.0.0.0 Safari/537.36 OPR/119.0.0.0" version="26.2.13">
  <diagram name="PÃ¡gina-1" id="bDkEmyQLf2jbOp8XnWil">
    <mxGraphModel dx="1000" dy="1711" grid="1" gridSize="10" guides="1" tooltips="1" connect="1" arrows="1" fold="1" page="1" pageScale="1" pageWidth="827" pageHeight="1169" math="0" shadow="0">
      <root>
        <mxCell id="0" />
        <mxCell id="1" parent="0" />
        <mxCell id="paEhWmoah84ltEEn0F1m-16" value="" style="verticalAlign=top;verticalLabelPosition=bottom;labelPosition=center;align=center;html=1;outlineConnect=0;gradientColor=none;gradientDirection=north;strokeWidth=2;shape=stencil(5VdLU4MwEP41HNshoTx6dHycvXmOmLYZY8IkaKu/3kBgdGNJChO9SJkp+ZbsfvtiIcmu9YE0NMEp0Q2t2yS7STB+I4qRR25gbCQHC1b5urCAIC/UYg9MUU61NuDVvRXqVslnemRP7bCPiQNVrLXSo8VQmnbr7DZJrwzandl1LYUwFJgUusfuHPlOKrpX8lU8AcEo1uSNntkXR9ybVV2ATKRUrdnHEAGcgiDh/JyfOD3Z9bB6t6u8GCM6ZXbHOLcB9XGztAYGG0CggvYRJFChKATsDbXkUhnA/vf6hRQ0rP/MxgRneWl+uX835Zw1mn45jwoY/gJ4X0HvC7RGYXaLyO/6YyZ5mLkNpA6Zby7Jm7dkdGu6KVxU/pTPj024In6lmKLnA0VOyCzjsathlvHs/5Ti71P7PixNvL+GZuDB1JDuxh+CUfwi+2E21mo5a+qMSjgTQMk6B2pQYHaMasy0NBecqD1dmevVjpM9GIZqtDAaUO8OoI+UNt82ItgNg57TipyYXinZku4d4tzAvZQzdB2njuuXRrDmUvuyb/CJRM7McOX0ZLbETUdJGWjsCSbIiVWx9Q/ZCS75QjWQzdbN3DI2200UNlUBleQRsrQs1dt0EROvOyX+w6LzunMpE8edzE1y+aeV66hx2ZSBl9WJBsBRnIrVRy6bkFP+R+TkdO23/fha7FH7tdsDnw==);fillColor=light-dark(#2E2E2D,#6C6C6C);strokeColor=light-dark(#C1DF11,#333333);fontSize=14;fontFamily=Helvetica;fontColor=#eeeeee;" parent="1" vertex="1">
          <mxGeometry x="30" y="-110" width="170" height="140" as="geometry" />
        </mxCell>
        <mxCell id="paEhWmoah84ltEEn0F1m-17" value="" style="group" parent="1" vertex="1" connectable="0">
          <mxGeometry x="154" y="150" width="300" height="60" as="geometry" />
        </mxCell>
        <mxCell id="paEhWmoah84ltEEn0F1m-11" value="" style="whiteSpace=wrap;html=1;rounded=1;arcSize=8;shadow=1;glass=0;comic=0;strokeWidth=2;fontSize=22;align=right;labelPosition=center;verticalLabelPosition=top;verticalAlign=bottom;fontStyle=0;horizontal=1;spacingLeft=0;connectable=1;container=1;collapsible=0;recursiveResize=0;spacingRight=15;sketch=0;fillStyle=auto;fillColor=light-dark(#333333,#333333);strokeColor=light-dark(#000000,#AFAFAF);fontColor=#EEEEEE;absoluteArcSize=1;" parent="paEhWmoah84ltEEn0F1m-17" vertex="1">
          <mxGeometry x="90" y="5" width="210" height="50" as="geometry" />
        </mxCell>
        <mxCell id="paEhWmoah84ltEEn0F1m-12" value="" style="pointerEvents=1;shadow=0;dashed=0;html=1;strokeColor=none;aspect=fixed;labelPosition=center;verticalLabelPosition=top;verticalAlign=bottom;align=center;outlineConnect=0;shape=mxgraph.vvd.ethernet_port;fontSize=14;strokeWidth=1;fontColor=#EEEEEE;spacing=0;fillColor=light-dark(#EEEEEE,#AFAFAF);spacingTop=0;spacingBottom=3;" parent="paEhWmoah84ltEEn0F1m-11" vertex="1">
          <mxGeometry x="90" y="10" width="30" height="30" as="geometry" />
        </mxCell>
        <mxCell id="paEhWmoah84ltEEn0F1m-13" value="" style="pointerEvents=1;shadow=0;dashed=0;html=1;strokeColor=none;aspect=fixed;labelPosition=center;verticalLabelPosition=top;verticalAlign=bottom;align=center;outlineConnect=0;shape=mxgraph.vvd.ethernet_port;fontSize=14;strokeWidth=1;fontColor=#EEEEEE;spacing=0;fillColor=light-dark(#EEEEEE,#AFAFAF);spacingTop=0;spacingBottom=3;" parent="paEhWmoah84ltEEn0F1m-11" vertex="1">
          <mxGeometry x="50" y="10" width="30" height="30" as="geometry" />
        </mxCell>
        <mxCell id="paEhWmoah84ltEEn0F1m-14" value="" style="pointerEvents=1;shadow=0;dashed=0;html=1;strokeColor=none;aspect=fixed;labelPosition=center;verticalLabelPosition=top;verticalAlign=bottom;align=center;outlineConnect=0;shape=mxgraph.vvd.ethernet_port;fontSize=14;strokeWidth=1;fontColor=#EEEEEE;spacing=0;fillColor=light-dark(#EEEEEE,#AFAFAF);spacingTop=0;spacingBottom=3;" parent="paEhWmoah84ltEEn0F1m-11" vertex="1">
          <mxGeometry x="10" y="10" width="30" height="30" as="geometry" />
        </mxCell>
        <mxCell id="Nu0mU-oZbdLJwIgSuWI8-4" value="" style="pointerEvents=1;shadow=0;dashed=0;html=1;strokeColor=none;aspect=fixed;labelPosition=center;verticalLabelPosition=top;verticalAlign=bottom;align=center;outlineConnect=0;shape=mxgraph.vvd.ethernet_port;fontSize=14;strokeWidth=1;fontColor=#EEEEEE;spacing=0;fillColor=light-dark(#EEEEEE,#AFAFAF);spacingTop=0;spacingBottom=3;" parent="paEhWmoah84ltEEn0F1m-11" vertex="1">
          <mxGeometry x="169.5" y="10" width="30" height="30" as="geometry" />
        </mxCell>
        <mxCell id="paEhWmoah84ltEEn0F1m-7" value="" style="pointerEvents=1;shadow=0;dashed=0;html=1;strokeColor=none;aspect=fixed;labelPosition=center;verticalLabelPosition=top;verticalAlign=bottom;align=center;outlineConnect=0;shape=mxgraph.vvd.ethernet_port;fontSize=14;strokeWidth=1;fontColor=#EEEEEE;spacing=0;fillColor=light-dark(#EEEEEE,#AFAFAF);spacingTop=0;spacingBottom=3;" parent="paEhWmoah84ltEEn0F1m-17" vertex="1">
          <mxGeometry x="219" y="15" width="30" height="30" as="geometry" />
        </mxCell>
        <mxCell id="paEhWmoah84ltEEn0F1m-15" value="&lt;font face=&quot;Lucida Console&quot;&gt;Unmanaged&lt;/font&gt;&lt;div&gt;&lt;font face=&quot;Lucida Console&quot;&gt;&lt;span style=&quot;background-color: transparent; color: light-dark(rgb(0, 0, 0), rgb(175, 175, 175));&quot;&gt;switch&lt;/span&gt;&lt;/font&gt;&lt;/div&gt;" style="text;html=1;align=right;verticalAlign=middle;resizable=0;points=[];autosize=1;strokeColor=none;fillColor=none;fontColor=light-dark(#000000,#AFAFAF);labelPosition=center;verticalLabelPosition=middle;fontSize=11;" parent="paEhWmoah84ltEEn0F1m-17" vertex="1">
          <mxGeometry y="10" width="80" height="40" as="geometry" />
        </mxCell>
        <mxCell id="paEhWmoah84ltEEn0F1m-18" style="edgeStyle=orthogonalEdgeStyle;rounded=0;orthogonalLoop=1;jettySize=auto;html=1;entryX=0.105;entryY=0.003;entryDx=0;entryDy=0;entryPerimeter=0;" parent="1" source="paEhWmoah84ltEEn0F1m-16" target="paEhWmoah84ltEEn0F1m-11" edge="1">
          <mxGeometry relative="1" as="geometry">
            <mxPoint x="190" y="50" as="sourcePoint" />
            <Array as="points">
              <mxPoint x="180" y="100" />
              <mxPoint x="266" y="100" />
            </Array>
          </mxGeometry>
        </mxCell>
        <mxCell id="paEhWmoah84ltEEn0F1m-20" value="&lt;font face=&quot;Lucida Console&quot;&gt;ISP fiber router&lt;/font&gt;&lt;div&gt;&lt;font face=&quot;Lucida Console&quot;&gt;&lt;font style=&quot;color: light-dark(rgb(0, 0, 0), rgb(255, 153, 51));&quot;&gt;192.168.0.1&lt;/font&gt;/16&lt;/font&gt;&lt;/div&gt;" style="text;html=1;align=center;verticalAlign=middle;resizable=0;points=[];autosize=1;strokeColor=none;fillColor=none;fontColor=light-dark(#000000,#AFAFAF);labelPosition=center;verticalLabelPosition=middle;fontSize=11;" parent="1" vertex="1">
          <mxGeometry x="35" y="30" width="130" height="40" as="geometry" />
        </mxCell>
        <mxCell id="paEhWmoah84ltEEn0F1m-22" value="" style="whiteSpace=wrap;html=1;rounded=1;arcSize=8;shadow=1;glass=0;dashed=1;comic=0;strokeWidth=3;fontSize=22;align=right;labelPosition=center;verticalLabelPosition=top;verticalAlign=bottom;fontStyle=0;horizontal=1;spacingLeft=0;connectable=1;container=1;collapsible=0;recursiveResize=0;dashPattern=4 3 4 3 4 3 36 3;spacingRight=15;sketch=0;fillStyle=auto;fillColor=#e1d5e7;strokeColor=#9673a6;absoluteArcSize=1;" parent="1" vertex="1">
          <mxGeometry x="280" y="-200" width="400" height="210" as="geometry" />
        </mxCell>
        <mxCell id="Nu0mU-oZbdLJwIgSuWI8-53" value="" style="whiteSpace=wrap;html=1;rounded=1;arcSize=8;shadow=1;glass=0;dashed=1;comic=0;strokeWidth=3;fontSize=22;align=right;labelPosition=center;verticalLabelPosition=top;verticalAlign=bottom;fontStyle=0;horizontal=1;spacingLeft=0;connectable=1;container=1;collapsible=0;recursiveResize=0;dashPattern=4 3 4 3 4 3 36 3;spacingRight=15;sketch=0;fillStyle=auto;fillColor=light-dark(#E1D5E7,#424242);strokeColor=light-dark(#9673A6,#B8B8B8);absoluteArcSize=1;" parent="paEhWmoah84ltEEn0F1m-22" vertex="1">
          <mxGeometry x="20" y="50" width="353" height="140" as="geometry" />
        </mxCell>
        <mxCell id="Nu0mU-oZbdLJwIgSuWI8-56" value="" style="fontColor=#000000;verticalAlign=middle;verticalLabelPosition=middle;labelPosition=right;align=left;html=1;outlineConnect=0;fillColor=#d6d6d6;strokeColor=#999;gradientColor=none;gradientDirection=north;strokeWidth=2;shape=stencil(ZVHbTsQgEP0aXhsWXHdf11o0pg8a9QOmQAuxCwTQ7v69w6ImXRMuM+dMZs4BwttkIGjCKKSgZSb8njD2BdHCMCPMkDEV3DBacwdHXaE3sHOSUApp7ydf+WVVzztCD6TElPB29FFP0X86tSJ+aXuEqTRLUdYmJueQCMc6gUsq1wwRnBp1lqaxOFBYtXs5Qx/2HSYL7t3tHk/zF2WjUS8TCuIHXjPqbIKbCBdlxkadhvHx9UkcnrsH1fbvN357V32cqoQf1+dVtly9yfUbFb1r54j8M39B6wdcgG8=);labelBackgroundColor=none;aspect=fixed;" parent="Nu0mU-oZbdLJwIgSuWI8-53" vertex="1">
          <mxGeometry x="10" y="10" width="30" height="30" as="geometry" />
        </mxCell>
        <mxCell id="Nu0mU-oZbdLJwIgSuWI8-57" value="&lt;font face=&quot;Lucida Console&quot;&gt;Tailscale&lt;/font&gt;&lt;div&gt;&lt;font face=&quot;Lucida Console&quot;&gt;(subnets)&lt;/font&gt;&lt;/div&gt;" style="text;html=1;align=left;verticalAlign=middle;resizable=0;points=[];autosize=1;strokeColor=none;fillColor=none;fontColor=light-dark(#000000,#AFAFAF);labelPosition=center;verticalLabelPosition=middle;fontSize=9;spacing=0;" parent="Nu0mU-oZbdLJwIgSuWI8-53" vertex="1">
          <mxGeometry x="43.00000000000006" y="10" width="70" height="30" as="geometry" />
        </mxCell>
        <mxCell id="elQ9f-XtGWdJRnMANCJ3-5" value="" style="fontColor=#000000;verticalAlign=middle;verticalLabelPosition=middle;labelPosition=right;align=left;html=1;outlineConnect=0;fillColor=#d6d6d6;strokeColor=#999;gradientColor=none;gradientDirection=north;strokeWidth=2;shape=stencil(fVBbDsIgEDwNvw3CCUzVD+MlEClgeAXQ2tu7dGtMm2jCx+zMZJlZwvtiRFKEUVGSkpXwA2HsKbIVVwc0A8UguWMU5yC8QuqsnJsGG4C8RB1RHld2fiR0TxqmX8D7IWalc3yE28qx8X3c1gvdMpYscbmpNRXCwXeCJ1Iq3X3J0sWsgZMmR6+kKBUG6xvlIGKXgsaYL9y0dJpW07hpvL1A+/ZPbN6D4UdDALOMZ5+VNw==);labelBackgroundColor=none;aspect=fixed;" parent="Nu0mU-oZbdLJwIgSuWI8-53" vertex="1">
          <mxGeometry x="10" y="60" width="30" height="30" as="geometry" />
        </mxCell>
        <mxCell id="elQ9f-XtGWdJRnMANCJ3-6" value="&lt;font face=&quot;Lucida Console&quot;&gt;Jellyfin&lt;/font&gt;" style="text;html=1;align=left;verticalAlign=middle;resizable=0;points=[];autosize=1;strokeColor=none;fillColor=none;fontColor=light-dark(#000000,#AFAFAF);labelPosition=center;verticalLabelPosition=middle;fontSize=9;spacing=0;" parent="Nu0mU-oZbdLJwIgSuWI8-53" vertex="1">
          <mxGeometry x="44.00000000000006" y="65" width="60" height="20" as="geometry" />
        </mxCell>
        <mxCell id="Xo_abZN_V_b8c8YmmFu0-2" value="" style="fontColor=#000000;verticalAlign=middle;verticalLabelPosition=middle;labelPosition=right;align=left;html=1;outlineConnect=0;fillColor=#d6d6d6;strokeColor=#999;gradientColor=none;gradientDirection=north;strokeWidth=2;shape=stencil(fVHtbsMgDHwafi7K4AmmbPvVPoRDXUAtHzJO0739nLBqS6RO4sf57jD2ocxQPRRUuoda0LIy70rrG1CA8Sq0FsU38lX3rU4QsVHHkNASnFnYQ3a56fPGbz5U/6YW3P8CM5wzoaM8pdPGsfM93CGCW4asZFtzz1yqMuL7lEMwdy6wn8apItmcGBN3NkfRxpA83gWcsr0gvTDGcgXGKlSEykh/TetDq/RYTRre5FqQrl1Jrq14b1P8BPK1qeZdXPv4lpH/WdkMYniSjoBVbn+2Kt8=);labelBackgroundColor=none;" vertex="1" parent="Nu0mU-oZbdLJwIgSuWI8-53">
          <mxGeometry x="104" y="10" width="29" height="30" as="geometry" />
        </mxCell>
        <mxCell id="Xo_abZN_V_b8c8YmmFu0-3" value="&lt;font face=&quot;Lucida Console&quot;&gt;Crafty&lt;/font&gt;&lt;div&gt;&lt;font face=&quot;Lucida Console&quot;&gt;Controller&lt;/font&gt;&lt;/div&gt;" style="text;html=1;align=left;verticalAlign=middle;resizable=0;points=[];autosize=1;strokeColor=none;fillColor=none;fontColor=light-dark(#000000,#AFAFAF);labelPosition=center;verticalLabelPosition=middle;fontSize=9;spacing=0;" vertex="1" parent="Nu0mU-oZbdLJwIgSuWI8-53">
          <mxGeometry x="140.00000000000006" y="10" width="70" height="30" as="geometry" />
        </mxCell>
        <mxCell id="Xo_abZN_V_b8c8YmmFu0-5" value="" style="shape=image;html=1;verticalAlign=top;verticalLabelPosition=bottom;labelBackgroundColor=#ffffff;imageAspect=0;aspect=fixed;image=https://cdn1.iconfinder.com/data/icons/bootstrap-vol-3/16/filetype-pdf-128.png" vertex="1" parent="Nu0mU-oZbdLJwIgSuWI8-53">
          <mxGeometry x="103" y="60" width="30" height="30" as="geometry" />
        </mxCell>
        <mxCell id="Xo_abZN_V_b8c8YmmFu0-6" value="&lt;font face=&quot;Lucida Console&quot;&gt;Stirling-PDF&lt;/font&gt;" style="text;html=1;align=left;verticalAlign=middle;resizable=0;points=[];autosize=1;strokeColor=none;fillColor=none;fontColor=light-dark(#000000,#AFAFAF);labelPosition=center;verticalLabelPosition=middle;fontSize=9;spacing=0;" vertex="1" parent="Nu0mU-oZbdLJwIgSuWI8-53">
          <mxGeometry x="133.00000000000006" y="65" width="80" height="20" as="geometry" />
        </mxCell>
        <mxCell id="Xo_abZN_V_b8c8YmmFu0-12" value="" style="shape=image;verticalLabelPosition=bottom;labelBackgroundColor=default;verticalAlign=top;aspect=fixed;imageAspect=0;editableCssRules=.*;image=data:image/svg+xml,PHN2ZyB4bWxucz0iaHR0cDovL3d3dy53My5vcmcvMjAwMC9zdmciIGhlaWdodD0iMzQuOTk5OTk2OTQ4MjQyMTg1IiB3aWR0aD0iMjExLjUyMjAwMDEyMjA3MDMyIiBzdHlsZT0ibWF4LWhlaWdodDogNTAwcHgiIHZpZXdCb3g9IjExLjEgMTcuNDk5OTk5NjE4NTMwMjc1IDIxMS41MjIwMDAxMjIwNzAzMiAzNC45OTk5OTY5NDgyNDIxODUiIGZpbGw9Im5vbmUiPiYjeGE7PHBhdGggZD0iTTQzLjMgMzAuMVYyMC4zQzQzLjMgMTkuOTI4NyA0My4xNTI1IDE5LjU3MjYgNDIuODkgMTkuMzFDNDIuNjI3NCAxOS4wNDc1IDQyLjI3MTMgMTguOSA0MS45IDE4LjlIMTMuOUMxMy41Mjg3IDE4LjkgMTMuMTcyNiAxOS4wNDc1IDEyLjkxMDEgMTkuMzFDMTIuNjQ3NSAxOS41NzI2IDEyLjUgMTkuOTI4NyAxMi41IDIwLjNWMzAuMUMxMi41IDQ2LjkgMjcuOSA1MS4xIDI3LjkgNTEuMUMyNy45IDUxLjEgNDMuMyA0Ni45IDQzLjMgMzAuMVoiIHN0cm9rZT0id2hpdGUiIHN0cm9rZS13aWR0aD0iMi44IiBzdHJva2UtbGluZWNhcD0icm91bmQiIHN0cm9rZS1saW5lam9pbj0icm91bmQiLz4mI3hhOzxwYXRoIGQ9Ik0yMC44OTk5IDM0LjNMMjUuMDk5OSAzOC41TDM0Ljg5OTkgMjguNyIgc3Ryb2tlPSIjRDZGQjQxIiBzdHJva2Utd2lkdGg9IjIuOCIgc3Ryb2tlLWxpbmVjYXA9InJvdW5kIiBzdHJva2UtbGluZWpvaW49InJvdW5kIi8+JiN4YTs8cGF0aCBkPSJNNjAuMDcgNDUuNUw1NS43OCAyMy42M0g2MS42TDYzLjc2IDM3LjgyTDY0LjEyIDQwLjI4SDY0LjM2TDY3LjY2IDIzLjYzSDczLjc4MDFMNzcuMDggNDAuMjhINzcuMzVMNzcuNjIgMzguMjFMNzkuNzgwMSAyMy42M0g4NS42M0w4MS40MDAxIDQ1LjVINzMuNzJMNzEuMTcwMSAzMy4wNUw3MC44NCAzMS4yMkg3MC42M0w3MC4zIDMzLjA1TDY3LjcyIDQ1LjVINjAuMDdaTTk0LjQyIDQ1LjhDOTIuNTggNDUuOCA5MS4wNSA0NS40NSA4OS44MyA0NC43NUM4OC42MyA0NC4wNSA4Ny43MiA0My4wOCA4Ny4xIDQxLjg0Qzg2LjUgNDAuNTggODYuMiAzOS4xMiA4Ni4yIDM3LjQ2VjM3LjEzQzg2LjIgMzUuMzkgODYuNTMgMzMuOTEgODcuMTkgMzIuNjlDODcuODUgMzEuNDcgODguNzYgMzAuNTQgODkuOTIgMjkuOUM5MS4xIDI5LjI2IDkyLjQ1IDI4Ljk0IDkzLjk3IDI4Ljk0Qzk1LjY3IDI4Ljk0IDk3LjExIDI5LjI2IDk4LjI5IDI5LjlDOTkuNDkgMzAuNTIgMTAwLjQgMzEuNCAxMDEuMDIgMzIuNTRDMTAxLjY0IDMzLjY4IDEwMS45NSAzNSAxMDEuOTUgMzYuNVYzOC43Mkg5MS41N1YzOS40N0M5MS41NyA0MC4xNyA5MS44MiA0MC43NCA5Mi4zMiA0MS4xOEM5Mi44MiA0MS42IDkzLjQ2IDQxLjgxIDk0LjI0IDQxLjgxQzk0Ljk0IDQxLjgxIDk1LjUxIDQxLjY3IDk1Ljk1IDQxLjM5Qzk2LjM5IDQxLjA5IDk2LjY1IDQwLjcgOTYuNzMgNDAuMjJIMTAxLjc3QzEwMS43MSA0MS4zNCAxMDEuMzYgNDIuMzIgMTAwLjcyIDQzLjE2QzEwMC4wOCA0My45OCA5OS4yMiA0NC42MyA5OC4xNCA0NS4xMUM5Ny4wNiA0NS41NyA5NS44MiA0NS44IDk0LjQyIDQ1LjhaTTkxLjU3IDM1LjM2VjM1LjUxSDk2LjczVjM1LjM2Qzk2LjczIDM0LjUgOTYuNDkgMzMuODcgOTYuMDEgMzMuNDdDOTUuNTUgMzMuMDUgOTQuOTMgMzIuODQgOTQuMTUgMzIuODRDOTMuMzkgMzIuODQgOTIuNzcgMzMuMDYgOTIuMjkgMzMuNUM5MS44MSAzMy45MiA5MS41NyAzNC41NCA5MS41NyAzNS4zNlpNMTE0Ljg3OSA0NS44QzExMy44NTkgNDUuOCAxMTIuOTI5IDQ1LjU4IDExMi4wODkgNDUuMTRDMTExLjI2OSA0NC43IDExMC42NTkgNDQuMDggMTEwLjI1OSA0My4yOEgxMTAuMDE5TDEwOS43MTkgNDUuNUgxMDQuNzA5VjIzLjYzSDExMC4wMTlWMzEuNDlIMTEwLjI1OUMxMTAuNjU5IDMwLjY5IDExMS4yNjkgMzAuMDcgMTEyLjA4OSAyOS42M0MxMTIuOTI5IDI5LjE3IDExMy44NTkgMjguOTQgMTE0Ljg3OSAyOC45NEMxMTYuMzU5IDI4Ljk0IDExNy41NDkgMjkuMjggMTE4LjQ0OSAyOS45NkMxMTkuMzQ5IDMwLjYyIDEyMC4wMDkgMzEuNTUgMTIwLjQyOSAzMi43NUMxMjAuODQ5IDMzLjk1IDEyMS4wNTkgMzUuMzYgMTIxLjA1OSAzNi45OFYzNy43NkMxMjEuMDU5IDQwLjYyIDEyMC40OTkgNDIuNjggMTE5LjM3OSA0My45NEMxMTguMjU5IDQ1LjE4IDExNi43NTkgNDUuOCAxMTQuODc5IDQ1LjhaTTExMi43MTkgNDEuNTFDMTEzLjU3OSA0MS41MSAxMTQuMjM5IDQxLjI3IDExNC42OTkgNDAuNzlDMTE1LjE3OSA0MC4yOSAxMTUuNDE5IDM5LjYgMTE1LjQxOSAzOC43MlYzNi4wNUMxMTUuNDE5IDM1LjE3IDExNS4xNzkgMzQuNDggMTE0LjY5OSAzMy45OEMxMTQuMjM5IDMzLjQ4IDExMy41NzkgMzMuMjMgMTEyLjcxOSAzMy4yM0MxMTEuODk5IDMzLjIzIDExMS4yNDkgMzMuNDggMTEwLjc2OSAzMy45OEMxMTAuMjg5IDM0LjQ2IDExMC4wNDkgMzUuMTUgMTEwLjA0OSAzNi4wNVYzOC42OUMxMTAuMDQ5IDM5LjYxIDExMC4yODkgNDAuMzEgMTEwLjc2OSA0MC43OUMxMTEuMjQ5IDQxLjI3IDExMS44OTkgNDEuNTEgMTEyLjcxOSA0MS41MVoiIGZpbGw9IndoaXRlIi8+JiN4YTs8cGF0aCBkPSJNMTMzLjc3IDQ1LjhDMTMxLjYxIDQ1LjggMTI5Ljc3IDQ1LjQxIDEyOC4yNSA0NC42M0MxMjYuNzMgNDMuODMgMTI1LjU2IDQyLjcxIDEyNC43NCA0MS4yN0MxMjMuOTQgMzkuODMgMTIzLjU0IDM4LjE1IDEyMy41NCAzNi4yM1YzNS45NkMxMjMuNTQgMzMuMzggMTIzLjk5IDMxLjE1IDEyNC44OSAyOS4yN0MxMjUuNzkgMjcuMzcgMTI3LjEgMjUuOTEgMTI4LjgyIDI0Ljg5QzEzMC41NCAyMy44NSAxMzIuNjEgMjMuMzMgMTM1LjAzIDIzLjMzQzEzNi45OSAyMy4zMyAxMzguNzEgMjMuNjcgMTQwLjE5IDI0LjM1QzE0MS42NyAyNS4wMSAxNDIuODMgMjUuOTQgMTQzLjY3IDI3LjE0QzE0NC41MSAyOC4zNCAxNDQuOTYgMjkuNzUgMTQ1LjAyIDMxLjM3SDEzOS4xN0MxMzkuMDUgMzAuNDEgMTM4LjU5IDI5LjY0IDEzNy43OSAyOS4wNkMxMzcuMDEgMjguNDggMTM2LjAyIDI4LjE5IDEzNC44MiAyOC4xOUMxMzMuNCAyOC4xOSAxMzIuMjcgMjguNTIgMTMxLjQzIDI5LjE4QzEzMC41OSAyOS44MiAxMzAuMDUgMzAuODMgMTI5LjgxIDMyLjIxTDEyOS4yNCAzNS4zNkMxMjguOTQgMzcuMSAxMjkuMjEgMzguNDcgMTMwLjA1IDM5LjQ3QzEzMC44OSA0MC40NSAxMzIuMTMgNDAuOTQgMTMzLjc3IDQwLjk0QzEzNC45OSA0MC45NCAxMzUuOTcgNDAuNjkgMTM2LjcxIDQwLjE5QzEzNy40NyAzOS42NyAxMzcuOTcgMzguOTcgMTM4LjIxIDM4LjA5SDE0NEMxNDMuNyAzOS43MyAxNDMuMDggNDEuMTMgMTQyLjE0IDQyLjI5QzE0MS4yIDQzLjQzIDE0MC4wMSA0NC4zIDEzOC41NyA0NC45QzEzNy4xMyA0NS41IDEzNS41MyA0NS44IDEzMy43NyA0NS44Wk0xNDUuNjMzIDQ1LjVMMTQ5LjUwMyAyMy42M0gxNTQuODczTDE1My41NTMgMzEuMTlIMTUzLjg4M0MxNTQuMzQzIDMwLjQ5IDE1NC45NzMgMjkuOTUgMTU1Ljc3MyAyOS41N0MxNTYuNTkzIDI5LjE3IDE1Ny40NjMgMjguOTcgMTU4LjM4MyAyOC45N0MxNjAuMjgzIDI4Ljk3IDE2MS42OTMgMjkuNjIgMTYyLjYxMyAzMC45MkMxNjMuNTUzIDMyLjIgMTYzLjgxMyAzNC4wMiAxNjMuMzkzIDM2LjM4TDE2MS43NzMgNDUuNUgxNTYuMzczTDE1Ny45NjMgMzYuNDdDMTU4LjE2MyAzNS40MSAxNTguMDYzIDM0LjYgMTU3LjY2MyAzNC4wNEMxNTcuMjYzIDMzLjQ4IDE1Ni42MDMgMzMuMiAxNTUuNjgzIDMzLjJDMTU0Ljg0MyAzMy4yIDE1NC4xNzMgMzMuNDcgMTUzLjY3MyAzNC4wMUMxNTMuMTczIDM0LjUzIDE1Mi44NDMgMzUuMjIgMTUyLjY4MyAzNi4wOEwxNTEuMDYzIDQ1LjVIMTQ1LjYzM1pNMTczLjU5OSA0NS44QzE3MS4yMTkgNDUuOCAxNjkuMzM5IDQ1LjE0IDE2Ny45NTkgNDMuODJDMTY2LjU5OSA0Mi41IDE2NS45MTkgNDAuNjcgMTY1LjkxOSAzOC4zM1YzOC4wOUMxNjUuOTE5IDM2LjI1IDE2Ni4yNDkgMzQuNjUgMTY2LjkwOSAzMy4yOUMxNjcuNTY5IDMxLjkxIDE2OC41MzkgMzAuODUgMTY5LjgxOSAzMC4xMUMxNzEuMDk5IDI5LjM1IDE3Mi42MzkgMjguOTcgMTc0LjQzOSAyOC45N0MxNzYuMTc5IDI4Ljk3IDE3Ny42NDkgMjkuMzIgMTc4Ljg0OSAzMC4wMkMxODAuMDY5IDMwLjcgMTgwLjk0OSAzMS42NyAxODEuNDg5IDMyLjkzQzE4Mi4wNDkgMzQuMTcgMTgyLjIwOSAzNS42MyAxODEuOTY5IDM3LjMxTDE4MS43NTkgMzguNzJIMTcxLjA0OUMxNzEuMDQ5IDM4Ljc4IDE3MS4wMzkgMzguODUgMTcxLjAxOSAzOC45M0MxNzEuMDE5IDM4Ljk5IDE3MS4wMTkgMzkuMDYgMTcxLjAxOSAzOS4xNEMxNzAuODk5IDM5Ljk0IDE3MS4wOTkgNDAuNTkgMTcxLjYxOSA0MS4wOUMxNzIuMTM5IDQxLjU3IDE3Mi44NDkgNDEuODEgMTczLjc0OSA0MS44MUMxNzQuNDI5IDQxLjgxIDE3NC45OTkgNDEuNjggMTc1LjQ1OSA0MS40MkMxNzUuOTM5IDQxLjE2IDE3Ni4yNTkgNDAuNzggMTc2LjQxOSA0MC4yOEgxODEuNDg5QzE4MS4yMDkgNDEuOTggMTgwLjM3OSA0My4zMyAxNzguOTk5IDQ0LjMzQzE3Ny42MTkgNDUuMzEgMTc1LjgxOSA0NS44IDE3My41OTkgNDUuOFpNMTcxLjY3OSAzNS4yMUwxNzEuNjE5IDM1LjUxSDE3Ni45ODlDMTc3LjA0OSAzNC42MyAxNzYuODQ5IDMzLjk3IDE3Ni4zODkgMzMuNTNDMTc1Ljk0OSAzMy4wNyAxNzUuMjk5IDMyLjg0IDE3NC40MzkgMzIuODRDMTczLjU3OSAzMi44NCAxNzIuOTI5IDMzLjA3IDE3Mi40ODkgMzMuNTNDMTcyLjA0OSAzMy45NyAxNzEuNzc5IDM0LjUzIDE3MS42NzkgMzUuMjFaTTE5MS40OTggNDUuOEMxODkuMDk4IDQ1LjggMTg3LjIxOCA0NS4xNCAxODUuODU4IDQzLjgyQzE4NC41MTggNDIuNSAxODMuODQ4IDQwLjc1IDE4My44NDggMzguNTdWMzguMzNDMTgzLjg0OCAzNi40MyAxODQuMTc4IDM0Ljc4IDE4NC44MzggMzMuMzhDMTg1LjUxOCAzMS45OCAxODYuNDg4IDMwLjkgMTg3Ljc0OCAzMC4xNEMxODkuMDI4IDI5LjM2IDE5MC41NjggMjguOTcgMTkyLjM2OCAyOC45N0MxOTQuNjQ4IDI4Ljk3IDE5Ni40NzggMjkuNTUgMTk3Ljg1OCAzMC43MUMxOTkuMjU4IDMxLjg3IDE5OS45ODggMzMuNDQgMjAwLjA0OCAzNS40MkgxOTQuOTE4QzE5NC44NzggMzQuNjggMTk0LjYxOCAzNC4xNCAxOTQuMTM4IDMzLjhDMTkzLjY3OCAzMy40NiAxOTMuMDg4IDMzLjI5IDE5Mi4zNjggMzMuMjlDMTkxLjUyOCAzMy4yOSAxOTAuODc4IDMzLjUxIDE5MC40MTggMzMuOTVDMTg5Ljk1OCAzNC4zNyAxODkuNjY4IDM0Ljk3IDE4OS41NDggMzUuNzVMMTg5LjE1OCAzOC4xNUMxODguOTc4IDM5LjIxIDE4OS4xMTggNDAuMDMgMTg5LjU3OCA0MC42MUMxOTAuMDM4IDQxLjE5IDE5MC43MzggNDEuNDggMTkxLjY3OCA0MS40OEMxOTIuMzc4IDQxLjQ4IDE5Mi45NTggNDEuMyAxOTMuNDE4IDQwLjk0QzE5My44NzggNDAuNTggMTk0LjE3OCA0MC4xIDE5NC4zMTggMzkuNUgxOTkuNDc4QzE5OS4zOTggNDAuNzYgMTk5LjAwOCA0MS44NiAxOTguMzA4IDQyLjhDMTk3LjYyOCA0My43NCAxOTYuNzA4IDQ0LjQ4IDE5NS41NDggNDUuMDJDMTk0LjM4OCA0NS41NCAxOTMuMDM4IDQ1LjggMTkxLjQ5OCA0NS44Wk0yMDEuMDkyIDQ1LjVMMjA0LjkzMiAyMy42M0gyMTAuMzMyTDIwOC4yMzIgMzUuNDJMMjE0LjYyMiAyOS4yN0gyMjEuMjIyTDIxNC4wNTIgMzUuNjlMMjE4LjQwMiA0NS41SDIxMi41NTJMMjA5Ljg1MiAzOC45NkwyMDcuMjEyIDQxLjI3TDIwNi40NjIgNDUuNUgyMDEuMDkyWiIgZmlsbD0iI0Q2RkI0MSIvPiYjeGE7PC9zdmc+;" vertex="1" parent="Nu0mU-oZbdLJwIgSuWI8-53">
          <mxGeometry x="213" y="15" width="121.14" height="20" as="geometry" />
        </mxCell>
        <mxCell id="Xo_abZN_V_b8c8YmmFu0-13" value="" style="shape=image;verticalLabelPosition=bottom;labelBackgroundColor=default;verticalAlign=top;aspect=fixed;imageAspect=0;editableCssRules=.*;image=data:image/svg+xml,PHN2ZyB4bWxucz0iaHR0cDovL3d3dy53My5vcmcvMjAwMC9zdmciIGZpbGw9Im5vbmUiIHZpZXdCb3g9IjAgMCA0OTQuNDQxMDA5NTIxNDg0NCAxMjYiIGhlaWdodD0iMTI2IiB3aWR0aD0iNDk0LjQ0MTAwOTUyMTQ4NDQiPiYjeGE7PHBhdGggZmlsbD0id2hpdGUiIGQ9Ik0xODkuMDggODMuMjhDMTkxLjEwNyA4My42IDE5Mi45NDcgODQuNDI2NyAxOTQuNiA4NS43NkMxOTYuMzA3IDg3LjA5MzMgMTk3LjY0IDg4Ljc0NjcgMTk4LjYgOTAuNzJDMTk5LjYxMyA5Mi42OTMzIDIwMC4xMiA5NC44IDIwMC4xMiA5Ny4wNEMyMDAuMTIgOTkuODY2NyAxOTkuNCAxMDIuNDI3IDE5Ny45NiAxMDQuNzJDMTk2LjUyIDEwNi45NiAxOTQuNDEzIDEwOC43NDcgMTkxLjY0IDExMC4wOEMxODguOTIgMTExLjM2IDE4NS42OTMgMTEyIDE4MS45NiAxMTJIMTYxLjE2VjU2LjI0SDE4MS4xNkMxODQuOTQ3IDU2LjI0IDE4OC4xNzMgNTYuODggMTkwLjg0IDU4LjE2QzE5My41MDcgNTkuMzg2NyAxOTUuNTA3IDYxLjA2NjcgMTk2Ljg0IDYzLjJDMTk4LjE3MyA2NS4zMzMzIDE5OC44NCA2Ny43MzMzIDE5OC44NCA3MC40QzE5OC44NCA3My43MDY3IDE5Ny45MzMgNzYuNDUzMyAxOTYuMTIgNzguNjRDMTk0LjM2IDgwLjc3MzMgMTkyLjAxMyA4Mi4zMiAxODkuMDggODMuMjhaTTE2OC40NCA4MC4zMkgxODAuNjhDMTg0LjA5MyA4MC4zMiAxODYuNzMzIDc5LjUyIDE4OC42IDc3LjkyQzE5MC40NjcgNzYuMzIgMTkxLjQgNzQuMTA2NyAxOTEuNCA3MS4yOEMxOTEuNCA2OC40NTMzIDE5MC40NjcgNjYuMjQgMTg4LjYgNjQuNjRDMTg2LjczMyA2My4wNCAxODQuMDQgNjIuMjQgMTgwLjUyIDYyLjI0SDE2OC40NFY4MC4zMlpNMTgxLjMyIDEwNkMxODQuOTQ3IDEwNiAxODcuNzczIDEwNS4xNDcgMTg5LjggMTAzLjQ0QzE5MS44MjcgMTAxLjczMyAxOTIuODQgOTkuMzYgMTkyLjg0IDk2LjMyQzE5Mi44NCA5My4yMjY3IDE5MS43NzMgOTAuOCAxODkuNjQgODkuMDRDMTg3LjUwNyA4Ny4yMjY3IDE4NC42NTMgODYuMzIgMTgxLjA4IDg2LjMySDE2OC40NFYxMDZIMTgxLjMyWk0yMjkuMzQzIDExMi43MkMyMjUuMjM2IDExMi43MiAyMjEuNTAzIDExMS43ODcgMjE4LjE0MyAxMDkuOTJDMjE0LjgzNiAxMDguMDUzIDIxMi4yMjMgMTA1LjQxMyAyMTAuMzAzIDEwMkMyMDguNDM2IDk4LjUzMzMgMjA3LjUwMyA5NC41MzMzIDIwNy41MDMgOTBDMjA3LjUwMyA4NS41MiAyMDguNDYzIDgxLjU3MzMgMjEwLjM4MyA3OC4xNkMyMTIuMzU2IDc0LjY5MzMgMjE1LjAyMyA3Mi4wNTMzIDIxOC4zODMgNzAuMjRDMjIxLjc0MyA2OC4zNzMzIDIyNS41MDMgNjcuNDQgMjI5LjY2MyA2Ny40NEMyMzMuODIzIDY3LjQ0IDIzNy41ODMgNjguMzczMyAyNDAuOTQzIDcwLjI0QzI0NC4zMDMgNzIuMDUzMyAyNDYuOTQzIDc0LjY2NjcgMjQ4Ljg2MyA3OC4wOEMyNTAuODM2IDgxLjQ5MzMgMjUxLjgyMyA4NS40NjY3IDI1MS44MjMgOTBDMjUxLjgyMyA5NC41MzMzIDI1MC44MDkgOTguNTMzMyAyNDguNzgzIDEwMkMyNDYuODA5IDEwNS40MTMgMjQ0LjExNiAxMDguMDUzIDI0MC43MDMgMTA5LjkyQzIzNy4yODkgMTExLjc4NyAyMzMuNTAzIDExMi43MiAyMjkuMzQzIDExMi43MlpNMjI5LjM0MyAxMDYuMzJDMjMxLjk1NiAxMDYuMzIgMjM0LjQwOSAxMDUuNzA3IDIzNi43MDMgMTA0LjQ4QzIzOC45OTYgMTAzLjI1MyAyNDAuODM2IDEwMS40MTMgMjQyLjIyMyA5OC45NkMyNDMuNjYzIDk2LjUwNjcgMjQ0LjM4MyA5My41MiAyNDQuMzgzIDkwQzI0NC4zODMgODYuNDggMjQzLjY4OSA4My40OTMzIDI0Mi4zMDMgODEuMDRDMjQwLjkxNiA3OC41ODY3IDIzOS4xMDMgNzYuNzczMyAyMzYuODYzIDc1LjZDMjM0LjYyMyA3NC4zNzMzIDIzMi4xOTYgNzMuNzYgMjI5LjU4MyA3My43NkMyMjYuOTE2IDczLjc2IDIyNC40NjMgNzQuMzczMyAyMjIuMjIzIDc1LjZDMjIwLjAzNiA3Ni43NzMzIDIxOC4yNzYgNzguNTg2NyAyMTYuOTQzIDgxLjA0QzIxNS42MDkgODMuNDkzMyAyMTQuOTQzIDg2LjQ4IDIxNC45NDMgOTBDMjE0Ljk0MyA5My41NzMzIDIxNS41ODMgOTYuNTg2NyAyMTYuODYzIDk5LjA0QzIxOC4xOTYgMTAxLjQ5MyAyMTkuOTU2IDEwMy4zMzMgMjIyLjE0MyAxMDQuNTZDMjI0LjMyOSAxMDUuNzMzIDIyNi43MjkgMTA2LjMyIDIyOS4zNDMgMTA2LjMyWk0yODAuNTE0IDExMi43MkMyNzYuNDA4IDExMi43MiAyNzIuNjc0IDExMS43ODcgMjY5LjMxNCAxMDkuOTJDMjY2LjAwOCAxMDguMDUzIDI2My4zOTQgMTA1LjQxMyAyNjEuNDc0IDEwMkMyNTkuNjA4IDk4LjUzMzMgMjU4LjY3NCA5NC41MzMzIDI1OC42NzQgOTBDMjU4LjY3NCA4NS41MiAyNTkuNjM0IDgxLjU3MzMgMjYxLjU1NCA3OC4xNkMyNjMuNTI4IDc0LjY5MzMgMjY2LjE5NCA3Mi4wNTMzIDI2OS41NTQgNzAuMjRDMjcyLjkxNCA2OC4zNzMzIDI3Ni42NzQgNjcuNDQgMjgwLjgzNCA2Ny40NEMyODQuOTk0IDY3LjQ0IDI4OC43NTQgNjguMzczMyAyOTIuMTE0IDcwLjI0QzI5NS40NzQgNzIuMDUzMyAyOTguMTE0IDc0LjY2NjcgMzAwLjAzNCA3OC4wOEMzMDIuMDA4IDgxLjQ5MzMgMzAyLjk5NCA4NS40NjY3IDMwMi45OTQgOTBDMzAyLjk5NCA5NC41MzMzIDMwMS45ODEgOTguNTMzMyAyOTkuOTU0IDEwMkMyOTcuOTgxIDEwNS40MTMgMjk1LjI4OCAxMDguMDUzIDI5MS44NzQgMTA5LjkyQzI4OC40NjEgMTExLjc4NyAyODQuNjc0IDExMi43MiAyODAuNTE0IDExMi43MlpNMjgwLjUxNCAxMDYuMzJDMjgzLjEyOCAxMDYuMzIgMjg1LjU4MSAxMDUuNzA3IDI4Ny44NzQgMTA0LjQ4QzI5MC4xNjggMTAzLjI1MyAyOTIuMDA4IDEwMS40MTMgMjkzLjM5NCA5OC45NkMyOTQuODM0IDk2LjUwNjcgMjk1LjU1NCA5My41MiAyOTUuNTU0IDkwQzI5NS41NTQgODYuNDggMjk0Ljg2MSA4My40OTMzIDI5My40NzQgODEuMDRDMjkyLjA4OCA3OC41ODY3IDI5MC4yNzQgNzYuNzczMyAyODguMDM0IDc1LjZDMjg1Ljc5NCA3NC4zNzMzIDI4My4zNjggNzMuNzYgMjgwLjc1NCA3My43NkMyNzguMDg4IDczLjc2IDI3NS42MzQgNzQuMzczMyAyNzMuMzk0IDc1LjZDMjcxLjIwOCA3Ni43NzMzIDI2OS40NDggNzguNTg2NyAyNjguMTE0IDgxLjA0QzI2Ni43ODEgODMuNDkzMyAyNjYuMTE0IDg2LjQ4IDI2Ni4xMTQgOTBDMjY2LjExNCA5My41NzMzIDI2Ni43NTQgOTYuNTg2NyAyNjguMDM0IDk5LjA0QzI2OS4zNjggMTAxLjQ5MyAyNzEuMTI4IDEwMy4zMzMgMjczLjMxNCAxMDQuNTZDMjc1LjUwMSAxMDUuNzMzIDI3Ny45MDEgMTA2LjMyIDI4MC41MTQgMTA2LjMyWk0zMzcuMDQ2IDExMkwzMTkuODQ2IDkyLjY0VjExMkgzMTIuNTY2VjUyLjhIMzE5Ljg0NlY4Ny42TDMzNi43MjYgNjguMTZIMzQ2Ljg4NkwzMjYuMjQ2IDkwTDM0Ni45NjYgMTEySDMzNy4wNDZaIi8+JiN4YTs8cGF0aCBmaWxsPSIjODE4Q0Y4IiBkPSJNMzYxLjAxOCA1Mi44VjExMkgzNTMuNzM4VjUyLjhIMzYxLjAxOFpNMzkyLjU0NiAxMTIuNzJDMzg4LjQzOSAxMTIuNzIgMzg0LjcwNiAxMTEuNzg3IDM4MS4zNDYgMTA5LjkyQzM3OC4wMzkgMTA4LjA1MyAzNzUuNDI2IDEwNS40MTMgMzczLjUwNiAxMDJDMzcxLjYzOSA5OC41MzMzIDM3MC43MDYgOTQuNTMzMyAzNzAuNzA2IDkwQzM3MC43MDYgODUuNTIgMzcxLjY2NiA4MS41NzMzIDM3My41ODYgNzguMTZDMzc1LjU1OSA3NC42OTMzIDM3OC4yMjYgNzIuMDUzMyAzODEuNTg2IDcwLjI0QzM4NC45NDYgNjguMzczMyAzODguNzA2IDY3LjQ0IDM5Mi44NjYgNjcuNDRDMzk3LjAyNiA2Ny40NCA0MDAuNzg2IDY4LjM3MzMgNDA0LjE0NiA3MC4yNEM0MDcuNTA2IDcyLjA1MzMgNDEwLjE0NiA3NC42NjY3IDQxMi4wNjYgNzguMDhDNDE0LjAzOSA4MS40OTMzIDQxNS4wMjYgODUuNDY2NyA0MTUuMDI2IDkwQzQxNS4wMjYgOTQuNTMzMyA0MTQuMDEyIDk4LjUzMzMgNDExLjk4NiAxMDJDNDEwLjAxMiAxMDUuNDEzIDQwNy4zMTkgMTA4LjA1MyA0MDMuOTA2IDEwOS45MkM0MDAuNDkyIDExMS43ODcgMzk2LjcwNiAxMTIuNzIgMzkyLjU0NiAxMTIuNzJaTTM5Mi41NDYgMTA2LjMyQzM5NS4xNTkgMTA2LjMyIDM5Ny42MTIgMTA1LjcwNyAzOTkuOTA2IDEwNC40OEM0MDIuMTk5IDEwMy4yNTMgNDA0LjAzOSAxMDEuNDEzIDQwNS40MjYgOTguOTZDNDA2Ljg2NiA5Ni41MDY3IDQwNy41ODYgOTMuNTIgNDA3LjU4NiA5MEM0MDcuNTg2IDg2LjQ4IDQwNi44OTIgODMuNDkzMyA0MDUuNTA2IDgxLjA0QzQwNC4xMTkgNzguNTg2NyA0MDIuMzA2IDc2Ljc3MzMgNDAwLjA2NiA3NS42QzM5Ny44MjYgNzQuMzczMyAzOTUuMzk5IDczLjc2IDM5Mi43ODYgNzMuNzZDMzkwLjExOSA3My43NiAzODcuNjY2IDc0LjM3MzMgMzg1LjQyNiA3NS42QzM4My4yMzkgNzYuNzczMyAzODEuNDc5IDc4LjU4NjcgMzgwLjE0NiA4MS4wNEMzNzguODEyIDgzLjQ5MzMgMzc4LjE0NiA4Ni40OCAzNzguMTQ2IDkwQzM3OC4xNDYgOTMuNTczMyAzNzguNzg2IDk2LjU4NjcgMzgwLjA2NiA5OS4wNEMzODEuMzk5IDEwMS40OTMgMzgzLjE1OSAxMDMuMzMzIDM4NS4zNDYgMTA0LjU2QzM4Ny41MzIgMTA1LjczMyAzODkuOTMyIDEwNi4zMiAzOTIuNTQ2IDEwNi4zMlpNNDMxLjg3OCA3NS4yOEM0MzMuMTU4IDcyLjc3MzMgNDM0Ljk3MSA3MC44MjY3IDQzNy4zMTggNjkuNDRDNDM5LjcxOCA2OC4wNTMzIDQ0Mi42MjQgNjcuMzYgNDQ2LjAzOCA2Ny4zNlY3NC44OEg0NDQuMTE4QzQzNS45NTggNzQuODggNDMxLjg3OCA3OS4zMDY3IDQzMS44NzggODguMTZWMTEySDQyNC41OThWNjguMTZINDMxLjg3OFY3NS4yOFpNNDk0LjQ0MSA4OC40QzQ5NC40NDEgODkuNzg2NyA0OTQuMzYxIDkxLjI1MzMgNDk0LjIwMSA5Mi44SDQ1OS4xNjFDNDU5LjQyOCA5Ny4xMiA0NjAuODk1IDEwMC41MDcgNDYzLjU2MSAxMDIuOTZDNDY2LjI4MSAxMDUuMzYgNDY5LjU2MSAxMDYuNTYgNDczLjQwMSAxMDYuNTZDNDc2LjU0OCAxMDYuNTYgNDc5LjE2MSAxMDUuODQgNDgxLjI0MSAxMDQuNEM0ODMuMzc1IDEwMi45MDcgNDg0Ljg2OCAxMDAuOTMzIDQ4NS43MjEgOTguNDhINDkzLjU2MUM0OTIuMzg4IDEwMi42OTMgNDkwLjA0MSAxMDYuMTMzIDQ4Ni41MjEgMTA4LjhDNDgzLjAwMSAxMTEuNDEzIDQ3OC42MjggMTEyLjcyIDQ3My40MDEgMTEyLjcyQzQ2OS4yNDEgMTEyLjcyIDQ2NS41MDggMTExLjc4NyA0NjIuMjAxIDEwOS45MkM0NTguOTQ4IDEwOC4wNTMgNDU2LjM4OCAxMDUuNDEzIDQ1NC41MjEgMTAyQzQ1Mi42NTUgOTguNTMzMyA0NTEuNzIxIDk0LjUzMzMgNDUxLjcyMSA5MEM0NTEuNzIxIDg1LjQ2NjcgNDUyLjYyOCA4MS40OTMzIDQ1NC40NDEgNzguMDhDNDU2LjI1NSA3NC42NjY3IDQ1OC43ODggNzIuMDUzMyA0NjIuMDQxIDcwLjI0QzQ2NS4zNDggNjguMzczMyA0NjkuMTM1IDY3LjQ0IDQ3My40MDEgNjcuNDRDNDc3LjU2MSA2Ny40NCA0ODEuMjQxIDY4LjM0NjcgNDg0LjQ0MSA3MC4xNkM0ODcuNjQxIDcxLjk3MzMgNDkwLjA5NSA3NC40OCA0OTEuODAxIDc3LjY4QzQ5My41NjEgODAuODI2NyA0OTQuNDQxIDg0LjQgNDk0LjQ0MSA4OC40Wk00ODYuOTIxIDg2Ljg4QzQ4Ni45MjEgODQuMTA2NyA0ODYuMzA4IDgxLjczMzMgNDg1LjA4MSA3OS43NkM0ODMuODU1IDc3LjczMzMgNDgyLjE3NSA3Ni4yMTMzIDQ4MC4wNDEgNzUuMkM0NzcuOTYxIDc0LjEzMzMgNDc1LjY0MSA3My42IDQ3My4wODEgNzMuNkM0NjkuNDAxIDczLjYgNDY2LjI1NSA3NC43NzMzIDQ2My42NDEgNzcuMTJDNDYxLjA4MSA3OS40NjY3IDQ1OS42MTUgODIuNzIgNDU5LjI0MSA4Ni44OEg0ODYuOTIxWiIvPiYjeGE7PHBhdGggZmlsbD0iIzgxOENGOCIgZD0iTTU5IDQuNzkyOTdDNzEuNTA1MSAxMS41NTU3IDgwIDI0Ljc4NTQgODAgNDBDODAgNDAuNTk1OSA3OS45ODcgNDEuMTg4OCA3OS45NjA5IDQxLjc3ODNDNzkuODYwOSA0NC4wNDA2IDgxLjczNTUgNDYgODQgNDZDMTA2LjA5MSA0NiAxMjQgNjMuOTA4NiAxMjQgODZDMTI0IDEwOC4wOTEgMTA2LjA5MSAxMjYgODQgMTI2SDEwQzQuNDc3MTUgMTI2IDAgMTIxLjUyMyAwIDExNlYzOS4wMDY4TDAuMDEyNjk1MyAzOC45OTQxQzAuMzU3NjI0IDI1LjAyNTIgNy44NjUwNiAxMi44MzQ3IDE5IDUuOTUyMTVWNjMuODMyQzE5IDY0LjgzNDUgMjAuMDY3NiA2NS40MzkxIDIwLjkxMjEgNjQuOTkwMkwyMS4wNzcxIDY0Ljg4NjdMMzguMjIyNyA1Mi4zNDI4QzM4LjY4MTkgNTIuMDA2OCAzOS4zMDY0IDUyLjAwNjggMzkuNzY1NiA1Mi4zNDI4TDU2LjkyMjkgNjQuODk0NUw1Ny4wODc5IDY0Ljk5OEM1Ny45MzI0IDY1LjQ0NyA1OSA2NC44NDIzIDU5IDYzLjgzOThWNC43OTI5N1oiLz4mI3hhOzxwYXRoIGZpbGw9IndoaXRlIiBkPSJNNDAgMEM0My44NzQ1IDAgNDcuNjE5OSAwLjU1MjM4MSA1MS4xNjMxIDEuNTgwMDhWNTAuOTY5N0w0NC4zOTI2IDQ2LjAxNzZMNDQuMDg3OSA0NS44MDM3QzQwLjkwNjEgNDMuNjY3OSAzNi43MDk4IDQzLjczOTMgMzMuNTk1NyA0Ni4wMTc2TDI2LjgzNjkgNTAuOTYxOVYyLjIxODc1QzMwLjk1OTMgMC43ODI2MzQgMzUuMzg4MSAwIDQwIDBaIi8+JiN4YTs8L3N2Zz4=;" vertex="1" parent="Nu0mU-oZbdLJwIgSuWI8-53">
          <mxGeometry x="213" y="57" width="101.94" height="26" as="geometry" />
        </mxCell>
        <mxCell id="Nu0mU-oZbdLJwIgSuWI8-55" value="&lt;font style=&quot;font-size: 11px;&quot; face=&quot;Lucida Console&quot;&gt;Services&lt;/font&gt;" style="text;html=1;align=left;verticalAlign=middle;resizable=0;points=[];autosize=1;strokeColor=none;fillColor=none;fontColor=light-dark(#000000,#AFAFAF);labelPosition=center;verticalLabelPosition=middle;fontSize=10;spacing=0;" parent="paEhWmoah84ltEEn0F1m-22" vertex="1">
          <mxGeometry x="21.000000000000057" y="30" width="70" height="20" as="geometry" />
        </mxCell>
        <mxCell id="Nu0mU-oZbdLJwIgSuWI8-10" value="" style="shape=stencil(vZTJDoIwEIafZq5NOwWEo0G9+gyIRUgqEMSIb28XNQFZAkY7B6b/LHwZaIGHlzQqBSDNo7MAvgHEjZBSCfuyzkopGuVyilQFlJfaFE6JZ4WbFYIVYVrgW6Br0NkUeJgUlThVxTU/tgLvcCZlXMiiUlv7NL1AtTfLvgFw11tdibhWXmOLnsn31q4D14M/1FyjTYT7yQOz5pC7hI+xM+L/i91LtH3Djuw16SH8gLg/oj8Ym0Ov8d2R2XvEabGzie+6GB0jbXPQHWf0r3GxM3ZEwvxF9DxUysdBNqq9OozwAA==);html=1;labelPosition=center;align=left;spacingLeft=15;dashed=0;shadow=0;fillColor=#ffffff;aspect=fixed;verticalAlign=bottom;verticalLabelPosition=top;fontSize=14;" parent="paEhWmoah84ltEEn0F1m-22" vertex="1">
          <mxGeometry x="140" y="180" width="189.68" height="60" as="geometry" />
        </mxCell>
        <mxCell id="paEhWmoah84ltEEn0F1m-31" value="" style="whiteSpace=wrap;html=1;rounded=1;arcSize=8;shadow=1;glass=0;comic=0;strokeWidth=2;fontSize=22;align=right;labelPosition=center;verticalLabelPosition=top;verticalAlign=bottom;fontStyle=0;horizontal=1;spacingLeft=0;connectable=1;container=1;collapsible=0;recursiveResize=0;spacingRight=15;sketch=0;fillStyle=auto;fillColor=light-dark(#333333,#333333);strokeColor=light-dark(#000000,#AFAFAF);fontColor=#EEEEEE;absoluteArcSize=1;" parent="1" vertex="1">
          <mxGeometry x="297" y="-230" width="356" height="54" as="geometry" />
        </mxCell>
        <mxCell id="paEhWmoah84ltEEn0F1m-35" value="" style="sketch=0;pointerEvents=1;shadow=0;dashed=0;html=1;strokeColor=none;fillColor=#434445;aspect=fixed;labelPosition=center;verticalLabelPosition=bottom;verticalAlign=top;align=center;outlineConnect=0;shape=mxgraph.vvd.cpu;" parent="paEhWmoah84ltEEn0F1m-31" vertex="1">
          <mxGeometry x="12" y="9.5" width="35" height="35" as="geometry" />
        </mxCell>
        <mxCell id="paEhWmoah84ltEEn0F1m-37" value="" style="sketch=0;pointerEvents=1;shadow=0;dashed=0;html=1;strokeColor=none;fillColor=#505050;labelPosition=center;verticalLabelPosition=bottom;verticalAlign=top;outlineConnect=0;align=center;shape=mxgraph.office.devices.hard_disk;" parent="paEhWmoah84ltEEn0F1m-31" vertex="1">
          <mxGeometry x="198" y="9.5" width="27" height="35" as="geometry" />
        </mxCell>
        <mxCell id="paEhWmoah84ltEEn0F1m-38" value="" style="sketch=0;pointerEvents=1;shadow=0;dashed=0;html=1;strokeColor=none;fillColor=light-dark(#005F4B,#AFAFAF);labelPosition=center;verticalLabelPosition=bottom;verticalAlign=top;align=center;outlineConnect=0;shape=mxgraph.veeam2.ram;" parent="paEhWmoah84ltEEn0F1m-31" vertex="1">
          <mxGeometry x="113" y="17.5" width="40" height="19" as="geometry" />
        </mxCell>
        <mxCell id="Nu0mU-oZbdLJwIgSuWI8-5" value="&lt;font face=&quot;Lucida Console&quot;&gt;Intel&amp;nbsp;&lt;/font&gt;&lt;div&gt;&lt;font face=&quot;Lucida Console&quot;&gt;i5-4580x4&lt;/font&gt;&lt;/div&gt;" style="text;html=1;align=left;verticalAlign=middle;resizable=0;points=[];autosize=1;strokeColor=none;fillColor=none;fontColor=light-dark(#000000,#AFAFAF);labelPosition=center;verticalLabelPosition=middle;fontSize=10;" parent="paEhWmoah84ltEEn0F1m-31" vertex="1">
          <mxGeometry x="47" y="7" width="80" height="40" as="geometry" />
        </mxCell>
        <mxCell id="Nu0mU-oZbdLJwIgSuWI8-6" value="&lt;font face=&quot;Lucida Console&quot;&gt;16 GB&lt;/font&gt;&lt;div&gt;&lt;font face=&quot;Lucida Console&quot;&gt;DDR3&lt;/font&gt;&lt;/div&gt;" style="text;html=1;align=left;verticalAlign=middle;resizable=0;points=[];autosize=1;strokeColor=none;fillColor=none;fontColor=light-dark(#000000,#AFAFAF);labelPosition=center;verticalLabelPosition=middle;fontSize=10;" parent="paEhWmoah84ltEEn0F1m-31" vertex="1">
          <mxGeometry x="153" y="4.5" width="50" height="40" as="geometry" />
        </mxCell>
        <mxCell id="Nu0mU-oZbdLJwIgSuWI8-7" value="" style="sketch=0;pointerEvents=1;shadow=0;dashed=0;html=1;strokeColor=none;fillColor=#505050;labelPosition=center;verticalLabelPosition=bottom;verticalAlign=top;outlineConnect=0;align=center;shape=mxgraph.office.devices.hard_disk;" parent="paEhWmoah84ltEEn0F1m-31" vertex="1">
          <mxGeometry x="273" y="9.5" width="27" height="35" as="geometry" />
        </mxCell>
        <mxCell id="Nu0mU-oZbdLJwIgSuWI8-8" value="&lt;font face=&quot;Lucida Console&quot;&gt;500 GB&lt;/font&gt;&lt;div&gt;&lt;font face=&quot;Lucida Console&quot;&gt;SSD&lt;/font&gt;&lt;/div&gt;" style="text;html=1;align=left;verticalAlign=middle;resizable=0;points=[];autosize=1;strokeColor=none;fillColor=none;fontColor=light-dark(#000000,#AFAFAF);labelPosition=center;verticalLabelPosition=middle;fontSize=10;" parent="paEhWmoah84ltEEn0F1m-31" vertex="1">
          <mxGeometry x="225" y="7" width="60" height="40" as="geometry" />
        </mxCell>
        <mxCell id="Nu0mU-oZbdLJwIgSuWI8-9" value="&lt;font face=&quot;Lucida Console&quot;&gt;500 GB&lt;/font&gt;&lt;div&gt;&lt;font face=&quot;Lucida Console&quot;&gt;HDD&lt;/font&gt;&lt;/div&gt;" style="text;html=1;align=left;verticalAlign=middle;resizable=0;points=[];autosize=1;strokeColor=none;fillColor=none;fontColor=light-dark(#000000,#AFAFAF);labelPosition=center;verticalLabelPosition=middle;fontSize=10;" parent="paEhWmoah84ltEEn0F1m-31" vertex="1">
          <mxGeometry x="300" y="7" width="60" height="40" as="geometry" />
        </mxCell>
        <mxCell id="paEhWmoah84ltEEn0F1m-21" style="edgeStyle=orthogonalEdgeStyle;rounded=0;orthogonalLoop=1;jettySize=auto;html=1;entryX=0.5;entryY=1;entryDx=0;entryDy=0;exitX=0.5;exitY=0;exitDx=0;exitDy=0;" parent="1" source="paEhWmoah84ltEEn0F1m-11" target="paEhWmoah84ltEEn0F1m-27" edge="1">
          <mxGeometry relative="1" as="geometry">
            <mxPoint x="340" y="20" as="targetPoint" />
            <Array as="points">
              <mxPoint x="350" y="155" />
              <mxPoint x="350" y="80" />
            </Array>
            <mxPoint x="350" y="150" as="sourcePoint" />
          </mxGeometry>
        </mxCell>
        <mxCell id="Nu0mU-oZbdLJwIgSuWI8-11" value="&lt;font face=&quot;Lucida Console&quot;&gt;Dell Optiplex 9020&lt;/font&gt;&lt;br&gt;&lt;div&gt;&lt;font face=&quot;Lucida Console&quot;&gt;&lt;font style=&quot;color: light-dark(rgb(0, 0, 0), rgb(255, 153, 51));&quot;&gt;192.168.0.147&lt;/font&gt;&lt;/font&gt;&lt;/div&gt;" style="text;html=1;align=right;verticalAlign=middle;resizable=0;points=[];autosize=1;strokeColor=none;fillColor=none;fontColor=light-dark(#000000,#AFAFAF);labelPosition=center;verticalLabelPosition=middle;fontSize=11;" parent="1" vertex="1">
          <mxGeometry x="470.00000000000006" y="40" width="140" height="40" as="geometry" />
        </mxCell>
        <mxCell id="Nu0mU-oZbdLJwIgSuWI8-14" value="" style="whiteSpace=wrap;html=1;rounded=1;arcSize=8;shadow=1;glass=0;dashed=1;comic=0;strokeWidth=3;fontSize=22;align=right;labelPosition=center;verticalLabelPosition=top;verticalAlign=bottom;fontStyle=0;horizontal=1;spacingLeft=0;connectable=1;container=1;collapsible=0;recursiveResize=0;dashPattern=4 3 4 3 4 3 36 3;spacingRight=15;sketch=0;fillStyle=auto;fillColor=#e1d5e7;strokeColor=#9673a6;absoluteArcSize=1;" parent="1" vertex="1">
          <mxGeometry x="220" y="310" width="507.5" height="330" as="geometry" />
        </mxCell>
        <mxCell id="Nu0mU-oZbdLJwIgSuWI8-29" value="&lt;font style=&quot;color: light-dark(rgb(0, 0, 0), rgb(175, 175, 175));&quot;&gt;&lt;font style=&quot;&quot;&gt;&lt;font style=&quot;&quot;&gt;Piscina&lt;span style=&quot;font-size: 16px;&quot;&gt;&amp;nbsp; &amp;nbsp; 4&lt;/span&gt;&lt;/font&gt;&lt;font style=&quot;font-size: 16px;&quot;&gt;x 1 TB Raid-z1&amp;nbsp;&lt;font style=&quot;&quot; face=&quot;Fira Code&quot;&gt;-&amp;gt;&lt;/font&gt;&amp;nbsp;2.54&amp;nbsp;&lt;/font&gt;&lt;/font&gt;&lt;font style=&quot;font-size: 16px;&quot;&gt;TB usable&lt;/font&gt;&lt;/font&gt;" style="whiteSpace=wrap;html=1;rounded=1;arcSize=8;shadow=1;glass=0;dashed=1;comic=0;strokeColor=#696963;strokeWidth=3;fillColor=#383835;fontSize=22;align=left;labelPosition=center;verticalLabelPosition=top;verticalAlign=bottom;fontStyle=0;horizontal=1;spacingLeft=0;connectable=1;container=1;collapsible=0;recursiveResize=0;fontColor=#999999;fontFamily=Titillium Web;dashPattern=4 3 4 3 4 3 36 3;spacingRight=15;sketch=0;fillStyle=auto;fontSource=https%3A%2F%2Ffonts.googleapis.com%2Fcss%3Ffamily%3DTitillium%2BWeb;absoluteArcSize=1;" parent="Nu0mU-oZbdLJwIgSuWI8-14" vertex="1">
          <mxGeometry x="27.25" y="80" width="453" height="120" as="geometry" />
        </mxCell>
        <mxCell id="Nu0mU-oZbdLJwIgSuWI8-30" value="&lt;span style=&quot;font-weight: 400;&quot;&gt;Share&lt;/span&gt;&lt;span style=&quot;background-color: transparent; color: light-dark(rgb(238, 238, 238), rgb(32, 32, 32)); white-space-collapse: preserve; font-weight: 400;&quot;&gt;&#x9;&lt;/span&gt;&lt;span style=&quot;background-color: transparent; color: light-dark(rgb(238, 238, 238), rgb(32, 32, 32)); white-space-collapse: preserve; font-weight: 400;&quot;&gt;&#x9;&lt;/span&gt;&lt;span style=&quot;background-color: transparent; color: light-dark(rgb(238, 238, 238), rgb(32, 32, 32)); white-space-collapse: preserve; font-weight: 400;&quot;&gt;&#x9;&lt;span style=&quot;white-space-collapse: preserve;&quot;&gt;&#x9;&#x9;&lt;/span&gt;&lt;/span&gt;&lt;span style=&quot;background-color: transparent; color: light-dark(rgb(238, 238, 238), rgb(32, 32, 32)); font-weight: 400;&quot;&gt;lz4&lt;/span&gt;&lt;span style=&quot;background-color: transparent; color: light-dark(rgb(238, 238, 238), rgb(32, 32, 32)); white-space-collapse: preserve; font-weight: 400;&quot;&gt;&#x9;&lt;/span&gt;&lt;span style=&quot;background-color: transparent; color: light-dark(rgb(238, 238, 238), rgb(32, 32, 32)); white-space-collapse: preserve; font-weight: 400;&quot;&gt;&#x9;&lt;/span&gt;&lt;span style=&quot;background-color: transparent; color: light-dark(rgb(238, 238, 238), rgb(32, 32, 32)); white-space-collapse: preserve; font-weight: 400;&quot;&gt;&#x9;&lt;/span&gt;&lt;span style=&quot;background-color: transparent; color: light-dark(rgb(238, 238, 238), rgb(32, 32, 32)); white-space-collapse: preserve; font-weight: 400;&quot;&gt;&#x9;&lt;/span&gt;&lt;font style=&quot;background-color: transparent; font-weight: 400;&quot;&gt;Off&lt;/font&gt;" style="shape=stencil(hVLbDsIgDP0a3hFi4qvZ9Mkn/6BunVuC1ADGy9fbUTRZnEpIyjnktD0FZavYwxmV0R5OqGytjNnBAR1HJnthFkuB1wK1HrHdKL1mdty26ijgMdDFt5OL9/XgXEOOAkOJOZUyFlYGVp0UUGY7ryaf5tWY12917ipgkxjeRKlFcZ+gqb0P9xCaODzKkF6arx2z3z+GOjgN7s64HHLePR0oEZMV+RZ9xPZ3nYS30VZMZSQ1JIiYRFTMLqduF8WOG45emAZ9wjBfyFbMfDxuZuXrZOIJ);html=1;labelPosition=right;align=left;spacingLeft=10;dashed=0;shadow=0;fillColor=#ffffff;rounded=1;glass=0;labelBackgroundColor=none;sketch=0;fontColor=#EEEEEE;fontStyle=1;fontSize=14;fontFamily=Roboto Condensed;" parent="Nu0mU-oZbdLJwIgSuWI8-29" vertex="1">
          <mxGeometry x="5" y="52.5" width="45" height="15" as="geometry" />
        </mxCell>
        <mxCell id="Nu0mU-oZbdLJwIgSuWI8-31" value="&lt;span style=&quot;font-size: 14px;&quot;&gt;Name&lt;span style=&quot;white-space: pre;&quot;&gt;&#x9;&lt;/span&gt;&lt;span style=&quot;white-space: pre;&quot;&gt;&#x9;&lt;/span&gt;&lt;span style=&quot;white-space: pre;&quot;&gt;&#x9;&lt;span style=&quot;white-space: pre;&quot;&gt;&#x9;&lt;span style=&quot;white-space: pre;&quot;&gt;&#x9;&lt;/span&gt;&lt;/span&gt;&lt;/span&gt;Compression&lt;span style=&quot;white-space: pre;&quot;&gt;&#x9;&lt;/span&gt;&lt;span style=&quot;white-space: pre;&quot;&gt;&#x9;&lt;/span&gt;Dedup&lt;/span&gt;" style="shape=stencil(fVHLDsIgEPwa7hTSpFfT6smfWHH7SBAMYKx+vZRFE9JaQrKZ2cwywzLZ+hHuyAQ3cEMmOybEGS6oY43kSExVE3xmyPmC5ZHxQ2SXK9veOhycfZhr0fi1J62V1dZFSDWNYkJCI6Dp6QEmTttqa8K2GtPZVydXDlWIcCYlJ8WrQGW8VXpwyk/v/ElfzV/HMe9OO+C8uPEhJ+kggMdAM7PHujRZZRd6GgwxCk1At+1DtpFZ7SSxtPFEfAA=);html=1;labelPosition=right;align=left;spacingLeft=10;dashed=0;shadow=0;fillColor=#ffffff;rounded=1;glass=0;labelBackgroundColor=none;sketch=0;fontColor=#EEEEEE;fontStyle=1;fontSize=14;opacity=0;fontFamily=Roboto Condensed;" parent="Nu0mU-oZbdLJwIgSuWI8-29" vertex="1">
          <mxGeometry x="5" y="30" width="45" height="15" as="geometry" />
        </mxCell>
        <mxCell id="Nu0mU-oZbdLJwIgSuWI8-32" value="" style="edgeStyle=orthogonalEdgeStyle;rounded=1;orthogonalLoop=1;jettySize=auto;html=1;endArrow=none;endFill=0;strokeColor=#078DDB;strokeWidth=2;fontSize=12;fontColor=#000000;perimeterSpacing=0;targetPerimeterSpacing=-5;" parent="Nu0mU-oZbdLJwIgSuWI8-29" edge="1">
          <mxGeometry relative="1" as="geometry">
            <Array as="points">
              <mxPoint x="180" y="60" />
              <mxPoint x="180" y="60" />
            </Array>
            <mxPoint x="180.03448275862092" y="42" as="sourcePoint" />
          </mxGeometry>
        </mxCell>
        <mxCell id="Nu0mU-oZbdLJwIgSuWI8-33" value="&lt;div style=&quot;font-size: 13px;&quot;&gt;&lt;font style=&quot;font-size: 13px;&quot;&gt;&lt;b style=&quot;font-size: 13px;&quot;&gt;Snapshots:&lt;/b&gt;&amp;nbsp;0 0 * * *&amp;nbsp; &amp;nbsp;&amp;nbsp;&lt;b style=&quot;font-size: 13px;&quot;&gt;Retention:&lt;/b&gt;&amp;nbsp;X WEEKS&lt;/font&gt;&lt;/div&gt;" style="whiteSpace=wrap;html=1;rounded=1;arcSize=2;shadow=1;glass=0;dashed=1;comic=0;strokeWidth=2;fontSize=13;align=left;labelPosition=center;verticalLabelPosition=middle;verticalAlign=middle;fontStyle=0;horizontal=1;spacingLeft=4;connectable=1;container=1;collapsible=0;recursiveResize=0;dashPattern=4 3 4 3 4 3 36 3;spacingRight=4;sketch=0;fillStyle=auto;fillColor=#474744;strokeColor=#75756F;perimeterSpacing=0;arcSize=25;fontColor=#EEEEEE;fontFamily=Roboto Condensed;" parent="Nu0mU-oZbdLJwIgSuWI8-29" vertex="1">
          <mxGeometry x="5" y="5" width="445" height="20" as="geometry" />
        </mxCell>
        <mxCell id="Nu0mU-oZbdLJwIgSuWI8-34" value="&lt;font style=&quot;font-size: 11px;&quot;&gt;Pool&lt;/font&gt;" style="rounded=1;whiteSpace=wrap;html=1;strokeColor=#A82A8F;strokeWidth=2;fontFamily=Roboto Condensed;fontSize=11;fontColor=#EEEEEE;fillColor=#A82A8F;fontStyle=1" parent="Nu0mU-oZbdLJwIgSuWI8-33" vertex="1">
          <mxGeometry x="412" y="3.75" width="30" height="12.5" as="geometry" />
        </mxCell>
        <mxCell id="Nu0mU-oZbdLJwIgSuWI8-50" value="&lt;span style=&quot;font-weight: 400;&quot;&gt;ix-applications&lt;/span&gt;&lt;span style=&quot;background-color: transparent; color: light-dark(rgb(238, 238, 238), rgb(32, 32, 32)); white-space-collapse: preserve; font-weight: 400;&quot;&gt;&#x9;&lt;/span&gt;&lt;span style=&quot;background-color: transparent; color: light-dark(rgb(238, 238, 238), rgb(32, 32, 32)); white-space-collapse: preserve; font-weight: 400;&quot;&gt;&#x9;&lt;/span&gt;&lt;span style=&quot;background-color: transparent; color: light-dark(rgb(238, 238, 238), rgb(32, 32, 32)); white-space-collapse: preserve; font-weight: 400;&quot;&gt;&#x9;&lt;/span&gt;&lt;span style=&quot;background-color: transparent; color: light-dark(rgb(238, 238, 238), rgb(32, 32, 32)); font-weight: 400;&quot;&gt;lz4&lt;/span&gt;&lt;span style=&quot;background-color: transparent; color: light-dark(rgb(238, 238, 238), rgb(32, 32, 32)); white-space-collapse: preserve; font-weight: 400;&quot;&gt;&#x9;&lt;/span&gt;&lt;span style=&quot;background-color: transparent; color: light-dark(rgb(238, 238, 238), rgb(32, 32, 32)); white-space-collapse: preserve; font-weight: 400;&quot;&gt;&#x9;&lt;/span&gt;&lt;span style=&quot;background-color: transparent; color: light-dark(rgb(238, 238, 238), rgb(32, 32, 32)); white-space-collapse: preserve; font-weight: 400;&quot;&gt;&#x9;&lt;/span&gt;&lt;span style=&quot;background-color: transparent; color: light-dark(rgb(238, 238, 238), rgb(32, 32, 32)); white-space-collapse: preserve; font-weight: 400;&quot;&gt;&#x9;&lt;/span&gt;&lt;font style=&quot;background-color: transparent; font-weight: 400;&quot;&gt;Off&lt;/font&gt;" style="shape=stencil(hVLbDsIgDP0a3hFi4qvZ9Mkn/6BunVuC1ADGy9fbUTRZnEpIyjnktD0FZavYwxmV0R5OqGytjNnBAR1HJnthFkuB1wK1HrHdKL1mdty26ijgMdDFt5OL9/XgXEOOAkOJOZUyFlYGVp0UUGY7ryaf5tWY12917ipgkxjeRKlFcZ+gqb0P9xCaODzKkF6arx2z3z+GOjgN7s64HHLePR0oEZMV+RZ9xPZ3nYS30VZMZSQ1JIiYRFTMLqduF8WOG45emAZ9wjBfyFbMfDxuZuXrZOIJ);html=1;labelPosition=right;align=left;spacingLeft=10;dashed=0;shadow=0;fillColor=#ffffff;rounded=1;glass=0;labelBackgroundColor=none;sketch=0;fontColor=#EEEEEE;fontStyle=1;fontSize=14;fontFamily=Roboto Condensed;" parent="Nu0mU-oZbdLJwIgSuWI8-29" vertex="1">
          <mxGeometry x="5" y="80" width="45" height="15" as="geometry" />
        </mxCell>
        <mxCell id="Nu0mU-oZbdLJwIgSuWI8-43" value="" style="fontColor=#000000;verticalAlign=middle;verticalLabelPosition=middle;labelPosition=right;align=left;html=1;outlineConnect=0;fillColor=#d6d6d6;strokeColor=#999;gradientColor=none;gradientDirection=north;strokeWidth=2;shape=stencil(bZDLDsIgEEW/hmUJQtLosvGxMm70B0aKrUkLBKjVv3foVJNGE0KGMw/uHaa2sQVvmBQQvdGJqR2T8gHhDtcOscRMS3AlBb0t9IbQJQzmVJ2RnTXkcnF0jaOqcdGl9kxULMeCqe3NBdMEN9h6kfik7z00eVgMmoa0KfnIFNYd8IzjyBP+bCFy7fpMfKGdTcYmfAy+c1BHjKTIEw+ixKtDYcWst5jUYkvvg4nRBe5tQ6qf9OHs9DV72HD5z9R3NesVLwlkhUuvSH7sTpQWP4E3);labelBackgroundColor=none;" parent="Nu0mU-oZbdLJwIgSuWI8-14" vertex="1">
          <mxGeometry x="-33" y="-30" width="64" height="70" as="geometry" />
        </mxCell>
        <mxCell id="Nu0mU-oZbdLJwIgSuWI8-42" value="" style="shape=stencil(tZfvToMwFMWfhq+ktPz9aKYmJr4Esk6ISBfATX16W8p0dXh2dRWWkN7LPfxue7K0gVgNdbmVAWdd+SwDcR1wfi87tVM6dLeW5Up2Y2/yic7oR23fiUQUFjaytxHBYjMWNwG70lHzE6uN6uVjr166tZP4TDdtW6lW9Xpon5NUwAXPzW0/EPDbxeph7NWTXK5/mC5cP3H1shr18NVWMlvx5ozcBpemoOyroXmfpy/BXzU9W/IzL3ltLHcay53GeJ47jRXpQlfCQ1dowcrU3JQF3zfrsTb009MuRchx5bY0r54kDulntZNfc8W5M1kRD6ERDyJt0x2L5H9TwShZCKeIiEJUgSich/HlKFQVjJLh5SeiEFUgivAAQtPAGKkPy1JVIEoc+bAsVQWjpD4sS1WBKMmZfywaClUFo3hYHpoGxEiZD8tSVTBK4sOyVBWIkjEflqWqYJTEh2WpKhAlZ5eD0DQwRuzDslQVjFL4sCxVBaIUsQ/LUlUwSuHDslSVqlUD2v3q+A/b0MPOFhSDkxIzNwLEG2974XrZts12OJ6jjDlzFLEiLOaDz3yqiGYr1e7wn45FUl+bza+7yNwuovR7F9xpAvrA4i2kp6U/OQlPUXv4ngIf);html=1;labelPosition=center;align=left;spacingLeft=15;dashed=0;shadow=1;fillColor=#ffffff;verticalAlign=bottom;verticalLabelPosition=top;fontSize=14;spacingRight=15;perimeterSpacing=0;strokeWidth=1;fontFamily=Roboto Condensed;aspect=fixed;" parent="Nu0mU-oZbdLJwIgSuWI8-14" vertex="1">
          <mxGeometry x="260" y="-46.84" width="210" height="91.18" as="geometry" />
        </mxCell>
        <mxCell id="elQ9f-XtGWdJRnMANCJ3-1" value="" style="whiteSpace=wrap;html=1;rounded=1;arcSize=8;shadow=1;glass=0;dashed=1;comic=0;strokeWidth=3;fontSize=22;align=right;labelPosition=center;verticalLabelPosition=top;verticalAlign=bottom;fontStyle=0;horizontal=1;spacingLeft=0;connectable=1;container=1;collapsible=0;recursiveResize=0;dashPattern=4 3 4 3 4 3 36 3;spacingRight=15;sketch=0;fillStyle=auto;fillColor=light-dark(#E1D5E7,#424242);strokeColor=light-dark(#9673A6,#B8B8B8);absoluteArcSize=1;" parent="Nu0mU-oZbdLJwIgSuWI8-14" vertex="1">
          <mxGeometry x="31" y="230" width="453" height="60" as="geometry" />
        </mxCell>
        <mxCell id="elQ9f-XtGWdJRnMANCJ3-13" value="" style="group" parent="elQ9f-XtGWdJRnMANCJ3-1" vertex="1" connectable="0">
          <mxGeometry x="13" y="15" width="30" height="30" as="geometry" />
        </mxCell>
        <mxCell id="elQ9f-XtGWdJRnMANCJ3-9" value="" style="rounded=1;whiteSpace=wrap;html=1;fillColor=#1ba1e2;fontColor=#ffffff;strokeColor=#006EAF;" parent="elQ9f-XtGWdJRnMANCJ3-13" vertex="1">
          <mxGeometry width="30" height="30" as="geometry" />
        </mxCell>
        <mxCell id="elQ9f-XtGWdJRnMANCJ3-10" value="" style="ellipse;whiteSpace=wrap;html=1;fillColor=none;direction=south;" parent="elQ9f-XtGWdJRnMANCJ3-13" vertex="1">
          <mxGeometry x="10" y="10" width="10" height="10" as="geometry" />
        </mxCell>
        <mxCell id="elQ9f-XtGWdJRnMANCJ3-11" value="" style="ellipse;whiteSpace=wrap;html=1;fillColor=none;direction=south;" parent="elQ9f-XtGWdJRnMANCJ3-13" vertex="1">
          <mxGeometry x="20" y="12.5" width="5" height="5" as="geometry" />
        </mxCell>
        <mxCell id="elQ9f-XtGWdJRnMANCJ3-12" value="" style="ellipse;whiteSpace=wrap;html=1;fillColor=none;direction=south;" parent="elQ9f-XtGWdJRnMANCJ3-13" vertex="1">
          <mxGeometry x="5" y="12.5" width="5" height="5" as="geometry" />
        </mxCell>
        <mxCell id="elQ9f-XtGWdJRnMANCJ3-18" value="&lt;font face=&quot;Lucida Console&quot;&gt;Nextcloud&lt;/font&gt;" style="text;html=1;align=left;verticalAlign=middle;resizable=0;points=[];autosize=1;strokeColor=none;fillColor=none;fontColor=light-dark(#000000,#AFAFAF);labelPosition=center;verticalLabelPosition=middle;fontSize=9;spacing=0;" parent="elQ9f-XtGWdJRnMANCJ3-1" vertex="1">
          <mxGeometry x="49.00000000000006" y="20" width="70" height="20" as="geometry" />
        </mxCell>
        <mxCell id="elQ9f-XtGWdJRnMANCJ3-4" value="&lt;font style=&quot;font-size: 11px;&quot; face=&quot;Lucida Console&quot;&gt;Services&lt;/font&gt;" style="text;html=1;align=left;verticalAlign=middle;resizable=0;points=[];autosize=1;strokeColor=none;fillColor=none;fontColor=light-dark(#000000,#AFAFAF);labelPosition=center;verticalLabelPosition=middle;fontSize=10;spacing=0;" parent="Nu0mU-oZbdLJwIgSuWI8-14" vertex="1">
          <mxGeometry x="31" y="210" width="70" height="20" as="geometry" />
        </mxCell>
        <mxCell id="Nu0mU-oZbdLJwIgSuWI8-12" style="edgeStyle=orthogonalEdgeStyle;rounded=0;orthogonalLoop=1;jettySize=auto;html=1;exitX=0.883;exitY=0.968;exitDx=0;exitDy=0;exitPerimeter=0;entryX=0.5;entryY=0;entryDx=0;entryDy=0;" parent="1" source="paEhWmoah84ltEEn0F1m-11" target="Nu0mU-oZbdLJwIgSuWI8-15" edge="1">
          <mxGeometry relative="1" as="geometry">
            <mxPoint x="340" y="280" as="targetPoint" />
          </mxGeometry>
        </mxCell>
        <mxCell id="Nu0mU-oZbdLJwIgSuWI8-15" value="" style="whiteSpace=wrap;html=1;rounded=1;arcSize=8;shadow=1;glass=0;comic=0;strokeWidth=2;fontSize=22;align=right;labelPosition=center;verticalLabelPosition=top;verticalAlign=bottom;fontStyle=0;horizontal=1;spacingLeft=0;connectable=1;container=1;collapsible=0;recursiveResize=0;spacingRight=15;sketch=0;fillStyle=auto;fillColor=light-dark(#333333,#333333);strokeColor=light-dark(#000000,#AFAFAF);fontColor=#EEEEEE;absoluteArcSize=1;" parent="1" vertex="1">
          <mxGeometry x="400.00000000000006" y="260" width="60" height="60" as="geometry" />
        </mxCell>
        <mxCell id="Nu0mU-oZbdLJwIgSuWI8-16" value="" style="pointerEvents=1;shadow=0;dashed=0;html=1;strokeColor=none;aspect=fixed;labelPosition=center;verticalLabelPosition=top;verticalAlign=bottom;align=center;outlineConnect=0;shape=mxgraph.vvd.ethernet_port;fontSize=14;strokeWidth=1;fontColor=#EEEEEE;spacing=0;fillColor=light-dark(#EEEEEE,#AFAFAF);spacingTop=0;spacingBottom=3;" parent="Nu0mU-oZbdLJwIgSuWI8-15" vertex="1">
          <mxGeometry x="15.5" y="20" width="30" height="30" as="geometry" />
        </mxCell>
        <mxCell id="qFk2EWIErdQROUqV3I47-4" value="&lt;font face=&quot;Lucida Console&quot;&gt;enp2s0&lt;/font&gt;" style="text;html=1;align=center;verticalAlign=middle;resizable=0;points=[];autosize=1;strokeColor=none;fillColor=none;fontColor=light-dark(#000000,#AFAFAF);labelPosition=center;verticalLabelPosition=middle;fontSize=11;" parent="Nu0mU-oZbdLJwIgSuWI8-15" vertex="1">
          <mxGeometry x="-5.684341886080802e-14" width="60" height="30" as="geometry" />
        </mxCell>
        <mxCell id="Nu0mU-oZbdLJwIgSuWI8-44" value="&lt;font face=&quot;Lucida Console&quot;&gt;HP Proliant MicroServer G7 N54L&lt;/font&gt;&lt;br&gt;&lt;div&gt;&lt;font face=&quot;Lucida Console&quot;&gt;&lt;font style=&quot;color: light-dark(rgb(0, 0, 0), rgb(255, 153, 51));&quot;&gt;192.168.47.131&lt;/font&gt;&lt;/font&gt;&lt;/div&gt;" style="text;html=1;align=right;verticalAlign=middle;resizable=0;points=[];autosize=1;strokeColor=none;fillColor=none;fontColor=light-dark(#000000,#AFAFAF);labelPosition=center;verticalLabelPosition=middle;fontSize=11;" parent="1" vertex="1">
          <mxGeometry x="470.0000000000001" y="220" width="230" height="40" as="geometry" />
        </mxCell>
        <mxCell id="qFk2EWIErdQROUqV3I47-1" value="&lt;span style=&quot;color: rgba(0, 0, 0, 0); font-family: monospace; font-size: 0px; text-align: start;&quot;&gt;%3CmxGraphModel%3E%3Croot%3E%3CmxCell%20id%3D%220%22%2F%3E%3CmxCell%20id%3D%221%22%20parent%3D%220%22%2F%3E%3CmxCell%20id%3D%222%22%20value%3D%22%26lt%3Bfont%20face%3D%26quot%3BLucida%20Console%26quot%3B%26gt%3BUnmanaged%26lt%3B%2Ffont%26gt%3B%26lt%3Bdiv%26gt%3B%26lt%3Bfont%20face%3D%26quot%3BLucida%20Console%26quot%3B%26gt%3B%26lt%3Bspan%20style%3D%26quot%3Bbackground-color%3A%20transparent%3B%20color%3A%20light-dark(rgb(0%2C%200%2C%200)%2C%20rgb(175%2C%20175%2C%20175))%3B%26quot%3B%26gt%3Bswitch%26lt%3B%2Fspan%26gt%3B%26lt%3B%2Ffont%26gt%3B%26lt%3B%2Fdiv%26gt%3B%22%20style%3D%22text%3Bhtml%3D1%3Balign%3Dright%3BverticalAlign%3Dmiddle%3Bresizable%3D0%3Bpoints%3D%5B%5D%3Bautosize%3D1%3BstrokeColor%3Dnone%3BfillColor%3Dnone%3BfontColor%3Dlight-dark(%23000000%2C%23AFAFAF)%3BlabelPosition%3Dcenter%3BverticalLabelPosition%3Dmiddle%3BfontSize%3D11%3B%22%20vertex%3D%221%22%20parent%3D%221%22%3E%3CmxGeometry%20x%3D%22154%22%20y%3D%22160%22%20width%3D%2280%22%20height%3D%2240%22%20as%3D%22geometry%22%2F%3E%3C%2FmxCell%3E%3C%2Froot%3E%3C%2FmxGraphModel%3E&lt;/span&gt;" style="text;html=1;align=right;verticalAlign=middle;resizable=0;points=[];autosize=1;strokeColor=none;fillColor=none;fontColor=light-dark(#000000,#AFAFAF);labelPosition=center;verticalLabelPosition=middle;fontSize=11;" parent="1" vertex="1">
          <mxGeometry x="250" y="245" width="20" height="30" as="geometry" />
        </mxCell>
        <mxCell id="Nu0mU-oZbdLJwIgSuWI8-17" value="" style="whiteSpace=wrap;html=1;rounded=1;arcSize=8;shadow=1;glass=0;comic=0;strokeWidth=2;fontSize=22;align=right;labelPosition=center;verticalLabelPosition=top;verticalAlign=bottom;fontStyle=0;horizontal=1;spacingLeft=0;connectable=1;container=1;collapsible=0;recursiveResize=0;spacingRight=15;sketch=0;fillStyle=auto;fillColor=light-dark(#333333,#333333);strokeColor=light-dark(#000000,#AFAFAF);fontColor=#EEEEEE;absoluteArcSize=1;" parent="1" vertex="1">
          <mxGeometry x="250" y="620" width="454.75" height="54" as="geometry" />
        </mxCell>
        <mxCell id="Nu0mU-oZbdLJwIgSuWI8-18" value="" style="sketch=0;pointerEvents=1;shadow=0;dashed=0;html=1;strokeColor=none;fillColor=#434445;aspect=fixed;labelPosition=center;verticalLabelPosition=bottom;verticalAlign=top;align=center;outlineConnect=0;shape=mxgraph.vvd.cpu;" parent="Nu0mU-oZbdLJwIgSuWI8-17" vertex="1">
          <mxGeometry x="12" y="9.5" width="35" height="35" as="geometry" />
        </mxCell>
        <mxCell id="Nu0mU-oZbdLJwIgSuWI8-19" value="" style="sketch=0;pointerEvents=1;shadow=0;dashed=0;html=1;strokeColor=none;fillColor=#505050;labelPosition=center;verticalLabelPosition=bottom;verticalAlign=top;outlineConnect=0;align=center;shape=mxgraph.office.devices.hard_disk;" parent="Nu0mU-oZbdLJwIgSuWI8-17" vertex="1">
          <mxGeometry x="306" y="9.5" width="27" height="35" as="geometry" />
        </mxCell>
        <mxCell id="Nu0mU-oZbdLJwIgSuWI8-20" value="" style="sketch=0;pointerEvents=1;shadow=0;dashed=0;html=1;strokeColor=none;fillColor=light-dark(#005F4B,#AFAFAF);labelPosition=center;verticalLabelPosition=bottom;verticalAlign=top;align=center;outlineConnect=0;shape=mxgraph.veeam2.ram;" parent="Nu0mU-oZbdLJwIgSuWI8-17" vertex="1">
          <mxGeometry x="160" y="15.75" width="44" height="22.5" as="geometry" />
        </mxCell>
        <mxCell id="Nu0mU-oZbdLJwIgSuWI8-21" value="&lt;font face=&quot;Lucida Console&quot;&gt;AMD Turion II&amp;nbsp;&lt;/font&gt;&lt;div&gt;&lt;span style=&quot;font-family: &amp;quot;Lucida Console&amp;quot;; background-color: transparent; color: light-dark(rgb(0, 0, 0), rgb(175, 175, 175));&quot;&gt;Neo N54L&lt;/span&gt;&lt;/div&gt;" style="text;html=1;align=left;verticalAlign=middle;resizable=0;points=[];autosize=1;strokeColor=none;fillColor=none;fontColor=light-dark(#000000,#AFAFAF);labelPosition=center;verticalLabelPosition=middle;fontSize=10;" parent="Nu0mU-oZbdLJwIgSuWI8-17" vertex="1">
          <mxGeometry x="56" y="7" width="110" height="40" as="geometry" />
        </mxCell>
        <mxCell id="Nu0mU-oZbdLJwIgSuWI8-22" value="&lt;font face=&quot;Lucida Console&quot;&gt;16 GB&amp;nbsp;&lt;/font&gt;&lt;span style=&quot;font-family: &amp;quot;Lucida Console&amp;quot;; background-color: transparent; color: light-dark(rgb(0, 0, 0), rgb(175, 175, 175));&quot;&gt;DDR3&lt;/span&gt;" style="text;html=1;align=center;verticalAlign=middle;resizable=0;points=[];autosize=1;strokeColor=none;fillColor=none;fontColor=light-dark(#000000,#AFAFAF);labelPosition=center;verticalLabelPosition=middle;fontSize=10;" parent="Nu0mU-oZbdLJwIgSuWI8-17" vertex="1">
          <mxGeometry x="204" y="12" width="80" height="30" as="geometry" />
        </mxCell>
        <mxCell id="Nu0mU-oZbdLJwIgSuWI8-24" value="&lt;font face=&quot;Lucida Console&quot;&gt;250 GB&amp;nbsp;&lt;/font&gt;&lt;span style=&quot;font-family: &amp;quot;Lucida Console&amp;quot;; background-color: transparent; color: light-dark(rgb(0, 0, 0), rgb(175, 175, 175));&quot;&gt;SSD&lt;/span&gt;" style="text;html=1;align=center;verticalAlign=middle;resizable=0;points=[];autosize=1;strokeColor=none;fillColor=none;fontColor=light-dark(#000000,#AFAFAF);labelPosition=center;verticalLabelPosition=middle;fontSize=10;" parent="Nu0mU-oZbdLJwIgSuWI8-17" vertex="1">
          <mxGeometry x="333" y="12" width="80" height="30" as="geometry" />
        </mxCell>
        <mxCell id="Xo_abZN_V_b8c8YmmFu0-1" value="" style="fontColor=#000000;verticalAlign=middle;verticalLabelPosition=middle;labelPosition=right;align=left;html=1;outlineConnect=0;fillColor=#d6d6d6;strokeColor=#999;gradientColor=none;gradientDirection=north;strokeWidth=2;shape=stencil(ZZDPDsIgDMafhusyIequZurJg6/QIcISgYU/23x7u1UPzIQm9Pc17dcy0UYDg2K8hjgomZg4M85HCD10L8QcFUNwx2vKHVhF6B78bP2M7Oa1J3UqqsWF1Se2/Gsm2qcPSgef3aMQfnJvQS9WYpDUxKQ0RCaw7ooPRkgQYqX7ZHKXowrSu6RcqqS3qGcMfjg2+2ZPVmbq8rX9LrJps9R2yWVkaR7Jn/+V0gVX8AE=);labelBackgroundColor=none;aspect=fixed;" vertex="1" parent="1">
          <mxGeometry x="640" y="-30" width="70" height="70" as="geometry" />
        </mxCell>
        <mxCell id="paEhWmoah84ltEEn0F1m-27" value="" style="whiteSpace=wrap;html=1;rounded=1;arcSize=8;shadow=1;glass=0;comic=0;strokeWidth=2;fontSize=22;align=right;labelPosition=center;verticalLabelPosition=top;verticalAlign=bottom;fontStyle=0;horizontal=1;spacingLeft=0;connectable=1;container=1;collapsible=0;recursiveResize=0;spacingRight=15;sketch=0;fillStyle=auto;fillColor=light-dark(#333333,#333333);strokeColor=light-dark(#000000,#AFAFAF);fontColor=#EEEEEE;absoluteArcSize=1;" parent="1" vertex="1">
          <mxGeometry x="319" y="-30" width="60" height="60" as="geometry" />
        </mxCell>
        <mxCell id="paEhWmoah84ltEEn0F1m-30" value="" style="pointerEvents=1;shadow=0;dashed=0;html=1;strokeColor=none;aspect=fixed;labelPosition=center;verticalLabelPosition=top;verticalAlign=bottom;align=center;outlineConnect=0;shape=mxgraph.vvd.ethernet_port;fontSize=14;strokeWidth=1;fontColor=#EEEEEE;spacing=0;fillColor=light-dark(#EEEEEE,#AFAFAF);spacingTop=0;spacingBottom=3;" parent="paEhWmoah84ltEEn0F1m-27" vertex="1">
          <mxGeometry x="15" y="20" width="30" height="30" as="geometry" />
        </mxCell>
        <mxCell id="qFk2EWIErdQROUqV3I47-5" value="&lt;font face=&quot;Lucida Console&quot;&gt;eno1&lt;/font&gt;" style="text;html=1;align=center;verticalAlign=middle;resizable=0;points=[];autosize=1;strokeColor=none;fillColor=none;fontColor=light-dark(#000000,#AFAFAF);labelPosition=center;verticalLabelPosition=middle;fontSize=11;" parent="paEhWmoah84ltEEn0F1m-27" vertex="1">
          <mxGeometry x="5" width="50" height="30" as="geometry" />
        </mxCell>
      </root>
    </mxGraphModel>
  </diagram>
</mxfile>
